<svg id="Layer_1" enable-background="new 0 0 256 256" height="512" viewBox="0 0 256 256" width="512" xmlns="http://www.w3.org/2000/svg"><g><g><g><g><path d="m32.035 187.725c-7.535 0-13.665-6.13-13.665-13.665v-123.777c0-7.535 6.13-13.665 13.665-13.665h191.931c7.535 0 13.665 6.13 13.665 13.665v123.777c0 7.535-6.13 13.665-13.665 13.665z" fill="#63bce7"/></g></g><g><g><path d="m229.221 45.028v129.008c0 2.916-2.364 5.28-5.28 5.28h-191.882c-2.916 0-5.28-2.364-5.28-5.28v-129.008z" fill="#f8af23"/></g></g><g><g><path d="m35.178 174.036v-129.009h-8.399v129.008c0 2.916 2.364 5.28 5.28 5.28h8.399c-2.917 0-5.28-2.363-5.28-5.279z" fill="#f87023"/></g></g><g><g><path d="m220.822 174.036v-129.009h8.399v129.008c0 2.916-2.364 5.28-5.28 5.28h-8.399c2.917 0 5.28-2.363 5.28-5.279z" fill="#f8d323"/></g></g><g><g><path d="m128 187.725h-119.333l3.053 7.024c2.751 6.329 8.995 10.423 15.896 10.423h100.384 100.385c6.901 0 13.145-4.094 15.896-10.423l3.053-7.024z" fill="#9e9e9e"/></g></g><g><g><path d="m238.935 187.725-3.053 7.024c-2.751 6.329-8.995 10.423-15.896 10.423h8.399c6.901 0 13.145-4.094 15.896-10.423l3.053-7.024z" fill="#cecece"/></g></g><g><g><path d="m20.118 194.748-3.053-7.024h-8.398l3.053 7.024c2.751 6.329 8.995 10.423 15.896 10.423h8.399c-6.902.001-13.146-4.094-15.897-10.423z" fill="#707070"/></g></g><g><g><path d="m82.442 187.725 4.22 5.388c1.649 2.106 4.175 3.336 6.85 3.336h68.975c2.675 0 5.201-1.23 6.85-3.336l4.221-5.388z" fill="#f46275"/></g></g></g><g><g><path d="m67.443 67.667h121.114v53.239h-121.114z" fill="#f46275"/></g></g><g><g><path d="m126.387 106.595 9.702-9.702c.806-.806.806-2.113 0-2.919l-9.702-9.702c-1.3-1.3-3.523-.379-3.523 1.459v19.404c0 1.839 2.223 2.76 3.523 1.46z" fill="#f8af23"/></g></g><g><g><path d="m149.848 156.042h-43.696c-4.583 0-8.333-3.75-8.333-8.333 0-4.583 3.75-8.333 8.333-8.333h43.696c4.583 0 8.333 3.75 8.333 8.333 0 4.583-3.75 8.333-8.333 8.333z" fill="#63bce7"/></g></g><g><g><path d="m174.212 152.383-21.08-6.971 3.212 21.969 4.857-6.878 8.76 10.437 5.396-4.529-8.761-10.436z" fill="#9e9e9e"/></g></g><g><g><g><g><path d="m67.443 98.614c-11.531 0-20.879-2.623-20.879-5.858v11.716c0 3.235 9.348 5.858 20.879 5.858s20.879-2.623 20.879-5.858v-11.716c0 3.235-9.348 5.858-20.879 5.858z" fill="#63bce7"/></g></g><g><g><ellipse cx="67.443" cy="92.756" fill="#f8d323" rx="20.879" ry="5.858"/></g></g><g><g><path d="m67.443 127.99c-11.531 0-20.879-2.623-20.879-5.858v11.716c0 3.235 9.348 5.858 20.879 5.858s20.879-2.623 20.879-5.858v-11.716c0 3.236-9.348 5.858-20.879 5.858z" fill="#63bce7"/></g></g><g><g><ellipse cx="67.443" cy="122.132" fill="#f8d323" rx="20.879" ry="5.858"/></g></g><g><g><path d="m67.443 157.386c-11.531 0-20.879-2.623-20.879-5.858v11.716c0 3.235 9.348 5.858 20.879 5.858s20.879-2.623 20.879-5.858v-11.716c0 3.236-9.348 5.858-20.879 5.858z" fill="#63bce7"/></g></g><g><g><ellipse cx="67.443" cy="151.528" fill="#f8d323" rx="20.879" ry="5.858"/></g></g></g><g><g><g><path d="m230.721 174.06v-129.033c0-.829-.672-1.5-1.5-1.5h-202.442c-.829 0-1.5.671-1.5 1.5v129.033c0 3.725 3.031 6.755 6.756 6.755h191.931c3.724 0 6.755-3.03 6.755-6.755zm-202.442 0v-127.533h199.442v127.533c0 2.071-1.685 3.755-3.755 3.755h-191.931c-2.071 0-3.756-1.684-3.756-3.755z" fill="#3f3679"/></g></g><g><g><path d="m248.587 186.902c-.276-.422-.748-.677-1.254-.677h-14.351c3.722-2.766 6.148-7.182 6.148-12.165v-123.777c0-8.362-6.803-15.165-15.164-15.165h-191.931c-8.362 0-15.165 6.803-15.165 15.165v123.777c0 4.983 2.427 9.399 6.149 12.165h-14.352c-.505 0-.977.255-1.254.678-.277.422-.323.957-.121 1.42l3.053 7.023c2.99 6.88 9.77 11.326 17.271 11.326h200.77c7.502 0 14.281-4.446 17.271-11.326l3.053-7.023c.2-.464.154-.998-.123-1.421zm-228.717-12.842v-123.777c0-6.708 5.457-12.165 12.165-12.165h191.931c6.707 0 12.164 5.457 12.164 12.165v123.777c0 6.708-5.457 12.165-12.164 12.165h-50.408-91.116-50.407c-6.708 0-12.165-5.457-12.165-12.165zm150.608 15.165-2.32 2.963c-1.374 1.754-3.441 2.76-5.67 2.76h-68.975c-2.229 0-4.295-1.006-5.669-2.76l-2.321-2.963zm72.426 4.925c-.118.272-.25.535-.383.798h-31.098c-.828 0-1.5.671-1.5 1.5s.672 1.5 1.5 1.5h29.14c-2.96 3.567-7.393 5.724-12.18 5.724h-200.768c-4.787 0-9.22-2.157-12.18-5.724h29.14c.829 0 1.5-.671 1.5-1.5s-.671-1.5-1.5-1.5h-31.097c-.132-.263-.264-.526-.383-.798l-2.141-4.925h21.081 49.677l3.77 4.813c1.947 2.485 4.874 3.911 8.031 3.911h68.975c3.157 0 6.085-1.425 8.031-3.911l3.769-4.813h49.678 21.08z" fill="#3f3679"/></g></g><g><g><path d="m65.22 194.948h-10.375c-.829 0-1.5.671-1.5 1.5s.671 1.5 1.5 1.5h10.375c.829 0 1.5-.671 1.5-1.5s-.672-1.5-1.5-1.5z" fill="#3f3679"/></g></g><g><g><path d="m201.155 194.948h-10.375c-.828 0-1.5.671-1.5 1.5s.672 1.5 1.5 1.5h10.375c.828 0 1.5-.671 1.5-1.5s-.672-1.5-1.5-1.5z" fill="#3f3679"/></g></g><g><g><path d="m208.051 217.881h-158.343c-.829 0-1.5.671-1.5 1.5s.671 1.5 1.5 1.5h158.343c.828 0 1.5-.671 1.5-1.5s-.672-1.5-1.5-1.5z" fill="#3f3679"/></g></g><g><g><path d="m232.882 217.881h-12.75c-.828 0-1.5.671-1.5 1.5s.672 1.5 1.5 1.5h12.75c.828 0 1.5-.671 1.5-1.5s-.672-1.5-1.5-1.5z" fill="#3f3679"/></g></g><g><g><path d="m37.627 217.881h-12.75c-.829 0-1.5.671-1.5 1.5s.671 1.5 1.5 1.5h12.75c.829 0 1.5-.671 1.5-1.5s-.671-1.5-1.5-1.5z" fill="#3f3679"/></g></g><g><g><path d="m188.557 66.167h-121.114c-.829 0-1.5.671-1.5 1.5v17.748c-10.327.204-20.879 2.52-20.879 7.341v11.716c0 4.821 10.552 7.137 20.879 7.341v2.978c-10.327.204-20.879 2.52-20.879 7.341v11.715c0 5.055 11.601 7.358 22.379 7.358s22.378-2.303 22.378-7.358v-11.442h98.735c.828 0 1.5-.671 1.5-1.5v-53.238c.001-.829-.671-1.5-1.499-1.5zm-121.114 22.231c12.785 0 19.378 3.054 19.378 4.357s-6.593 4.358-19.378 4.358c-12.786 0-19.379-3.055-19.379-4.358s6.594-4.357 19.379-4.357zm-19.379 16.074v-7.781c4.145 2.331 11.957 3.423 19.379 3.423s15.233-1.092 19.378-3.423v7.781c0 1.303-6.593 4.357-19.378 4.357s-19.379-3.054-19.379-4.357zm18.971 13.309c.196 0 .443-.002.816 0 12.51.066 18.97 3.063 18.97 4.352 0 1.303-6.593 4.358-19.378 4.358-12.786 0-19.379-3.055-19.379-4.358 0-1.29 6.46-4.287 18.971-4.352zm.408 20.425c-12.786 0-19.379-3.055-19.379-4.358v-7.78c4.145 2.331 11.957 3.423 19.379 3.423s15.233-1.092 19.378-3.423v7.78c.001 1.303-6.592 4.358-19.378 4.358zm119.614-18.801h-98.558c-3.141-2.979-11.415-4.453-19.556-4.614v-2.978c10.327-.204 20.878-2.52 20.878-7.341v-11.716c0-4.821-10.552-7.137-20.878-7.341v-16.248h118.113v50.238z" fill="#3f3679"/></g></g><g><g><path d="m123.564 108.428c.444.184.908.273 1.367.273.926 0 1.833-.362 2.516-1.046l9.702-9.702c.674-.673 1.044-1.568 1.044-2.521s-.37-1.847-1.044-2.52l-9.702-9.702c-1.022-1.023-2.547-1.327-3.884-.773s-2.2 1.846-2.2 3.293v19.404c.001 1.448.865 2.741 2.201 3.294zm.8-22.697c0-.328.218-.467.348-.521.057-.024.137-.047.229-.047.118 0 .255.039.385.169l9.702 9.703c.145.144.165.312.165.398s-.021.255-.165.399l-9.702 9.702c-.231.231-.483.177-.614.122-.13-.054-.348-.193-.348-.521z" fill="#3f3679"/></g></g><g><g><path d="m168.997 156.501 5.854-2.762c.556-.262.895-.835.857-1.447-.037-.613-.443-1.141-1.026-1.333l-15.162-5.014c0-.002 0-.004 0-.005-.857-4.673-4.926-8.064-9.673-8.064h-43.695c-5.422 0-9.833 4.411-9.833 9.833s4.411 9.833 9.833 9.833h43.695c1.188 0 2.348-.238 3.446-.653l1.566 10.709c.089.607.538 1.099 1.136 1.242.592.142 1.22-.093 1.574-.594l3.734-5.288 7.508 8.946c.256.305.623.495 1.019.53.044.004.088.006.131.006.352 0 .693-.124.965-.351l5.396-4.529c.634-.533.717-1.479.185-2.113zm-19.149-1.959h-43.695c-3.768 0-6.833-3.065-6.833-6.833s3.065-6.833 6.833-6.833h43.695c2.683 0 5.032 1.573 6.144 3.903l-2.389-.79c-.492-.162-1.036-.059-1.436.275-.397.334-.595.851-.52 1.366l1.199 8.202c-.931.459-1.951.71-2.998.71zm20.298 14.285-7.795-9.288c-.286-.34-.707-.536-1.149-.536-.021 0-.042 0-.062.001-.465.019-.895.253-1.163.633l-2.69 3.81-2.317-15.849 15.208 5.029-4.219 1.99c-.421.198-.726.581-.825 1.035s.017.929.315 1.286l7.796 9.288z" fill="#3f3679"/></g></g><g><g><path d="m67.443 144.171c-10.778 0-22.379 2.302-22.379 7.357v11.716c0 5.055 11.601 7.357 22.379 7.357s22.378-2.302 22.378-7.357v-11.716c.001-5.055-11.599-7.357-22.378-7.357zm0 3c12.785 0 19.378 3.054 19.378 4.357s-6.593 4.358-19.378 4.358c-12.786 0-19.379-3.055-19.379-4.358s6.594-4.357 19.379-4.357zm0 20.431c-12.786 0-19.379-3.054-19.379-4.357v-7.781c4.145 2.331 11.957 3.423 19.379 3.423s15.233-1.092 19.378-3.423v7.781c.001 1.302-6.592 4.357-19.378 4.357z" fill="#3f3679"/></g></g></g></g></g><g><g><g><path d="m160.533 114.054c.158.428 0 .65-.46.65h-1.713c-.808 0-1.062-.159-1.188-.666l-.365-1.141h-3.424l-.365 1.141c-.174.507-.396.666-1.157.666h-1.664c-.444 0-.587-.222-.429-.65l3.646-10.051c.143-.444.333-.555.825-.555h1.807c.46 0 .682.127.824.523zm-5.026-5.501c-.19-.634-.316-1.474-.333-1.902l-.016-.317h-.158c.016.761-.096 1.491-.302 2.204l-.586 1.871h1.981z" fill="#3f3679"/></g></g><g><g><path d="m166.696 103.448c3.091 0 4.867 1.665 4.867 4.439v2.378c0 2.743-1.776 4.439-4.867 4.439h-3.868c-.508 0-.683-.174-.683-.666v-9.924c0-.492.175-.666.683-.666zm1.728 4.487c0-1.142-.618-1.712-1.839-1.712h-1.3v5.708h1.3c1.221 0 1.839-.571 1.839-1.712z" fill="#3f3679"/></g></g><g><g><path d="m173.872 104.177c.824-.65 1.982-.967 3.456-.967 2.331 0 3.679.698 4.424 2.22.206.412.079.713-.381.888l-1.585.682c-.429.19-.603.127-.856-.333-.27-.555-.809-.824-1.602-.824-.998 0-1.506.27-1.506.824 0 .619.666.793 2.077.967.982.127 1.363.174 2.267.539.429.174.762.396 1.015.634.508.491.936 1.379.936 2.521 0 1.125-.46 2.014-1.363 2.647-.92.65-2.108.967-3.552.967-2.473 0-4.011-.824-4.613-2.458-.174-.491-.031-.697.429-.872l1.49-.539c.459-.174.697-.095.935.349.286.555.889.84 1.792.84 1.126 0 1.696-.301 1.696-.904 0-.571-.603-.761-1.854-.936-.65-.095-.65-.079-1.301-.222-.301-.048-.522-.111-.682-.159-.333-.111-.936-.333-1.236-.571s-.714-.602-.888-1.046c-.19-.428-.349-.983-.349-1.665-.001-1.06.411-1.932 1.251-2.582z" fill="#3f3679"/></g></g></g></svg>