<?xml version="1.0"?>
<svg xmlns="http://www.w3.org/2000/svg" xmlns:xlink="http://www.w3.org/1999/xlink" xmlns:svgjs="http://svgjs.com/svgjs" version="1.1" width="512" height="512" x="0" y="0" viewBox="0 0 64 64" style="enable-background:new 0 0 512 512" xml:space="preserve"><g><g xmlns="http://www.w3.org/2000/svg"><g><path d="m43.988 57.966c-1.243-1.667-1.988-3.727-1.988-5.966h-10c-4.119 0-7.948-1.245-11.129-3.38l-.014.014c-.957 1.825-2.46 3.313-4.293 4.257l-.02.019c4.321 3.198 9.668 5.09 15.456 5.09h12z" fill="#fe9603" data-original="#f0bc5e" style=""/></g><g><path d="m6.294 35.794c1.619-1.128 3.583-1.794 5.706-1.794.029 0 .057.004.087.004l.012-.004c-.066-.657-.099-1.325-.099-2 0-9.461 6.578-17.367 15.404-19.447l-4.737-3.553 2.931-2.198c-11.262 2.853-19.598 13.049-19.598 25.198 0 1.291.094 2.559.276 3.8z" fill="#fe9603" data-original="#f0bc5e" style=""/></g><g><path d="m52 32c0 3.825-1.074 7.4-2.937 10.438h.006c.927-.283 1.911-.438 2.931-.438 1.3 0 2.537.256 3.676.707l.023.001c1.478-3.266 2.301-6.891 2.301-10.708 0-13.686-10.575-24.903-24-25.924v-3.076l-8 6 8 6v-2.901c10.107 1.003 18 9.53 18 19.901z" fill="#fe9603" data-original="#f0bc5e" style=""/></g><g><path d="m43 43v-20h-6v18h-2v-14h-6v14h-2v-10h-6v6.695c-1.992-2.834-5.28-4.695-9-4.695-6.065 0-11 4.935-11 11 0 4.264 2.444 7.961 6 9.786v4.214c0 1.654 1.346 3 3 3h4c1.654 0 3-1.346 3-3v-4.214c3.556-1.825 6-5.521 6-9.786 0-.338-.021-.67-.051-1zm-4-18h2v16h-2zm-8 4h2v12h-2zm-8 4h2v8h-2zm-12 11h2v8.941c-.329.037-.662.059-1 .059s-.671-.022-1-.059zm4 14c0 .551-.449 1-1 1h-4c-.551 0-1-.449-1-1v-3.426c.955.271 1.959.426 3 .426s2.045-.155 3-.426zm0-5.525v-6.659c.314.112.648.184 1 .184 1.654 0 3-1.346 3-3s-1.346-3-3-3c-1.302 0-2.402.839-2.816 2h-2.369c-.413-1.161-1.513-2-2.815-2-1.654 0-3 1.346-3 3s1.346 3 3 3c.352 0 .686-.072 1-.184v6.659c-3.49-1.24-6-4.566-6-8.475 0-4.962 4.038-9 9-9s9 4.038 9 9c0 3.909-2.51 7.235-6 8.475zm0-9.475c0-.551.449-1 1-1s1 .449 1 1-.449 1-1 1-1-.449-1-1zm-6 0c0 .551-.449 1-1 1s-1-.449-1-1 .449-1 1-1 1 .449 1 1z" fill="#000000" data-original="#000000" style=""/><path d="m52 41c-6.065 0-11 4.935-11 11s4.935 11 11 11 11-4.935 11-11-4.935-11-11-11zm-4.932 18.519.304-2.434c.291-2.329 2.281-4.085 4.628-4.085s4.337 1.756 4.628 4.085l.304 2.434c-1.418.934-3.111 1.481-4.932 1.481s-3.514-.547-4.932-1.481zm2.932-10.519c0-1.103.897-2 2-2s2 .897 2 2-.897 2-2 2-2-.897-2-2zm8.749 8.934-.137-1.096c-.285-2.285-1.716-4.184-3.67-5.15.651-.712 1.058-1.65 1.058-2.688 0-2.206-1.794-4-4-4s-4 1.794-4 4c0 1.038.407 1.976 1.057 2.687-1.954.966-3.384 2.865-3.67 5.15l-.137 1.096c-1.395-1.585-2.25-3.659-2.25-5.933 0-4.962 4.038-9 9-9s9 4.038 9 9c0 2.274-.855 4.348-2.251 5.934z" fill="#000000" data-original="#000000" style=""/></g></g></g></svg>
