<svg id="Layer_5" enable-background="new 0 0 64 64" height="512" viewBox="0 0 64 64" width="512" xmlns="http://www.w3.org/2000/svg"><path d="m31 18c0-6.065-4.935-11-11-11s-11 4.935-11 11c0 2.527.866 4.851 2.304 6.711-.192.4-.304.836-.304 1.289v6.043c-1.153-1.842-3.196-3.043-5.465-3.043-1.397 0-2.535 1.137-2.535 2.535 0 .502.147.988.426 1.406l1.029 1.543c.381.572.627 1.234.712 1.916l.709 5.669c.107.862.439 1.685.962 2.38l2.162 2.884v1.667h-2v14h22v-14h-2v-1.764l1.473-2.945c.344-.69.527-1.464.527-2.235v-16.056c0-.453-.113-.889-.304-1.289 1.438-1.859 2.304-4.183 2.304-6.711zm-11-9c4.963 0 9 4.038 9 9s-4.037 9-9 9-9-4.038-9-9 4.037-9 9-9zm7 42v2h-18v-2zm-18 10v-6h18v6zm17.684-17.603-1.684 3.367v2.236h-14v-2.333l-2.562-3.417c-.313-.417-.513-.91-.577-1.427l-.709-5.669c-.123-.987-.479-1.948-1.032-2.777l-1.03-1.545c-.059-.088-.09-.191-.09-.297 0-.295.24-.535.535-.535 2.111 0 3.945 1.503 4.36 3.574l1.248 6.242.614.154c1.91.478 3.243 2.185 3.243 4.153v1.877h2v-1.877c0-2.617-1.612-4.912-4-5.842v-12.802c.613.507 1.286.941 2 1.307v10.214h2v-9.426c.645.183 1.312.313 2 .376v9.05h2v-9.051c.688-.062 1.355-.192 2-.376v9.427h2v-10.214c.714-.366 1.387-.8 2-1.307v15.577c0 .463-.109.927-.316 1.341z"/><path d="m20 21c-.552 0-1-.449-1-1h-2c0 1.302.839 2.402 2 2.816v2.184h2v-2h2v-3c0-1.654-1.346-3-3-3-.552 0-1-.449-1-1v-1h1c.552 0 1 .449 1 1h2c0-1.302-.839-2.402-2-2.816v-2.184h-2v2h-2v3c0 1.654 1.346 3 3 3 .552 0 1 .449 1 1v1z"/><path d="m60.574 31.059-1.029-1.543c-.381-.572-.627-1.234-.712-1.916l-.709-5.669c-.107-.862-.439-1.685-.962-2.38l-2.162-2.884v-1.667h2v-14h-22v14h2v1.764l-1.473 2.945c-.344.69-.527 1.464-.527 2.235v16.056c0 .199.022.395.06.586-2.494 2.37-4.06 5.709-4.06 9.414 0 7.168 5.832 13 13 13s13-5.832 13-13c0-3.705-1.566-7.044-4.06-9.414.038-.191.06-.387.06-.586v-6.043c1.153 1.842 3.196 3.043 5.465 3.043 1.397 0 2.535-1.137 2.535-2.535 0-.502-.147-.988-.426-1.406zm-5.574-28.059v10h-18v-4h8v-2h-8v-4zm0 45c0 6.065-4.935 11-11 11s-11-4.935-11-11 4.935-11 11-11 11 4.935 11 11zm3.465-15c-2.111 0-3.945-1.503-4.36-3.574l-1.248-6.242-.614-.154c-1.91-.478-3.243-2.185-3.243-4.153v-1.877h-2v1.877c0 2.617 1.612 4.912 4 5.842v12.344c-.633-.407-1.299-.767-2-1.06v-10.003h-2v9.363c-.65-.154-1.317-.26-2-.313v-9.05h-2v9.051c-.683.052-1.35.158-2 .313v-9.364h-2v10.003c-.701.293-1.367.654-2 1.06v-15.119c0-.463.109-.927.316-1.342l1.684-3.366v-2.236h14v2.333l2.562 3.417c.313.417.513.91.577 1.427l.709 5.669c.123.987.479 1.948 1.032 2.777l1.029 1.543c.059.088.09.191.09.297.001.297-.239.537-.534.537z"/><path d="m35.515 47h16.971v2h-16.971z" transform="matrix(.707 -.707 .707 .707 -21.054 45.172)"/><path d="m48 49c-1.654 0-3 1.346-3 3s1.346 3 3 3 3-1.346 3-3-1.346-3-3-3zm0 4c-.552 0-1-.449-1-1s.448-1 1-1 1 .449 1 1-.448 1-1 1z"/><path d="m40 47c1.654 0 3-1.346 3-3s-1.346-3-3-3-3 1.346-3 3 1.346 3 3 3zm0-4c.552 0 1 .449 1 1s-.448 1-1 1-1-.449-1-1 .448-1 1-1z"/><path d="m50 11c1.654 0 3-1.346 3-3s-1.346-3-3-3-3 1.346-3 3 1.346 3 3 3zm0-4c.552 0 1 .449 1 1s-.448 1-1 1-1-.449-1-1 .448-1 1-1z"/></svg>