<svg height="512" viewBox="0 0 64 64" width="512" xmlns="http://www.w3.org/2000/svg"><g id="target"><path d="m41 46h-1.667l-3.333-2.5v-1.341a10.019 10.019 0 0 0 5.949-8.159h.051a3 3 0 0 0 3-3v-1a3 3 0 0 0 -3-3v-.278a7 7 0 0 0 3-5.722v-6a1 1 0 0 0 -1-1h-18a7.008 7.008 0 0 0 -7 7v3a4 4 0 0 0 1.734 3.29 3 3 0 0 0 -1.734 2.71v1a3 3 0 0 0 3 3h.051a10.019 10.019 0 0 0 5.949 8.159v1.341l-3.333 2.5h-1.667a9.011 9.011 0 0 0 -9 9v6a1 1 0 0 0 1 1h34a1 1 0 0 0 1-1v-6a9.011 9.011 0 0 0 -9-9zm2-16v1a1 1 0 0 1 -1 1v-3a1 1 0 0 1 1 1zm-22-9a5.006 5.006 0 0 1 5-5h17v5a4.992 4.992 0 0 1 -1.281 3.321.993.993 0 0 0 -.456-.286l-5.64-1.54a1 1 0 0 0 -1.118.445 4.435 4.435 0 0 1 -1.117 1.269 5.475 5.475 0 0 1 -2.283.988 7.2 7.2 0 0 0 .895-3.11 1 1 0 0 0 -1-1.087h-1a.989.989 0 0 0 -.394.081l-7 3a1 1 0 0 0 -.606.919v.722a1.993 1.993 0 0 1 -1-1.722zm0 10v-1a1 1 0 0 1 1-1v3a1 1 0 0 1 -1-1zm3 2v-7.341l5.8-2.483a2.718 2.718 0 0 1 -.528 1.143 4.039 4.039 0 0 1 -.516.452 1.407 1.407 0 0 0 -.7 1.533 1.325 1.325 0 0 0 .951.851 7.163 7.163 0 0 0 5.593-1.355 6.105 6.105 0 0 0 1.18-1.185l4.22 1.149v7.236a8 8 0 0 1 -16 0zm5.6 11.8a1 1 0 0 0 .4-.8v-1.2a10 10 0 0 0 4 0v1.2a1 1 0 0 0 .4.8l2.783 2.087-5.183 2.961-5.183-2.961zm7.989 4.158-1.409 7.042h-8.36l-1.409-7.042 5.093 2.91a1 1 0 0 0 .992 0zm10.411 11.042h-32v-5a7.008 7.008 0 0 1 7-7h1.18l1.84 9.2a1 1 0 0 0 .98.8h10a1 1 0 0 0 .98-.8l1.84-9.2h1.18a7.008 7.008 0 0 1 7 7z"/><path d="m31 8.858v2.142h2v-2.142a4 4 0 1 0 -2 0zm1-5.858a2 2 0 1 1 -2 2 2 2 0 0 1 2-2z"/><path d="m8.858 33h5.142v-2h-5.142a4 4 0 1 0 0 2zm-3.858 1a2 2 0 1 1 2-2 2 2 0 0 1 -2 2z"/><path d="m59 28a4 4 0 0 0 -3.858 3h-5.142v2h5.142a3.993 3.993 0 1 0 3.858-5zm0 6a2 2 0 1 1 2-2 2 2 0 0 1 -2 2z"/><path d="m40.52 8.105h2v1.81h-2z" transform="matrix(.388 -.921 .921 .388 17.09 43.77)"/><path d="m37.184 6.698h2v1.811h-2z" transform="matrix(.389 -.921 .921 .389 16.341 39.832)"/><path d="m43.856 9.511h2v1.81h-2z" transform="matrix(.388 -.921 .921 .388 17.834 47.704)"/><path d="m55.491 37.184h1.81v2h-1.81z" transform="matrix(.389 -.921 .921 .389 -.705 75.305)"/><path d="m52.678 43.856h1.811v2h-1.811z" transform="matrix(.389 -.921 .921 .389 -8.572 76.792)"/><path d="m54.085 40.52h1.81v2h-1.81z" transform="matrix(.389 -.921 .921 .389 -4.639 76.049)"/><path d="m9.511 18.144h1.81v2h-1.81z" transform="matrix(.389 -.921 .921 .389 -11.271 21.301)"/><path d="m8.105 21.48h1.81v2h-1.81z" transform="matrix(.389 -.921 .921 .389 -15.205 22.044)"/><path d="m6.698 24.816h1.811v2h-1.811z" transform="matrix(.389 -.921 .921 .389 -19.138 22.788)"/><path d="m9.416 43.951h2v1.81h-2z" transform="matrix(.921 -.388 .388 .921 -16.606 7.569)"/><path d="m6.603 37.278h2v1.811h-2z" transform="matrix(.921 -.389 .389 .921 -14.243 5.957)"/><path d="m8.01 40.615h2v1.81h-2z" transform="matrix(.921 -.389 .389 .921 -15.429 6.766)"/><path d="m55.396 24.911h2v1.81h-2z" transform="matrix(.921 -.389 .389 .921 -5.6 23.949)"/><path d="m53.99 21.575h2v1.81h-2z" transform="matrix(.921 -.389 .389 .921 -4.414 23.14)"/><path d="m52.583 18.238h2v1.811h-2z" transform="matrix(.921 -.389 .389 .921 -3.228 22.326)"/><path d="m21.575 8.01h1.81v2h-1.81z" transform="matrix(.921 -.389 .389 .921 -1.734 9.446)"/><path d="m18.238 9.416h1.81v2h-1.81z" transform="matrix(.921 -.389 .389 .921 -2.543 8.259)"/><path d="m24.911 6.604h1.81v2h-1.81z" transform="matrix(.921 -.389 .389 .921 -.926 10.632)"/><path d="m46.021 16.565 1.414 1.414 1.546-1.546a3.947 3.947 0 0 0 2.019.567 4 4 0 1 0 -4-4 3.947 3.947 0 0 0 .567 2.019zm4.979-5.565a2 2 0 1 1 -2 2 2 2 0 0 1 2-2z"/><path d="m13 17a3.947 3.947 0 0 0 2.019-.567l1.546 1.546 1.414-1.414-1.546-1.546a3.947 3.947 0 0 0 .567-2.019 4 4 0 1 0 -4 4zm0-6a2 2 0 1 1 -2 2 2 2 0 0 1 2-2z"/></g></svg>