<svg id="Layer_5" enable-background="new 0 0 64 64" height="512" viewBox="0 0 64 64" width="512" xmlns="http://www.w3.org/2000/svg"><g><g><path d="m17 19h8v9h-8z" fill="#f0bc5e"/></g><g><path d="m9 31h18v10h-18z" fill="#f0bc5e"/></g><g><path d="m51 47h8v2h-8z"/><path d="m47 47h2v2h-2z"/><path d="m57.972 9.288c-.364-4.631-4.249-8.288-8.972-8.288-3.553 0-6.722 2.069-8.176 5.242-.593-.161-1.203-.242-1.824-.242-3.14 0-5.831 2.058-6.7 5h-26.3c-2.757 0-5 2.243-5 5v32c0 2.757 2.243 5 5 5h14.612l-1.333 4h-.279c-2.757 0-5 2.243-5 5v1h36v-1c0-2.757-2.243-5-5-5h-.279l-1.333-4h14.612c2.757 0 5-2.243 5-5v-32c0-3.149-2.07-5.852-5.028-6.712zm-12.972 49.712c1.304 0 2.416.836 2.829 2h-31.658c.413-1.164 1.525-2 2.829-2zm-23.612-2 1.333-4h18.558l1.333 4zm39.612-9c0 1.654-1.346 3-3 3h-52c-1.654 0-3-1.346-3-3v-32c0-1.654 1.346-3 3-3h22.532c-.516.576-.911 1.257-1.175 2h-20.357c-1.103 0-2 .897-2 2v26c0 1.103.897 2 2 2h50c1.103 0 2-.897 2-2v-20.685c.749-.357 1.426-.839 2-1.425zm-28-25h23c.34 0 .672-.033 1-.08v20.08h-50v-26h20c0 3.309 2.691 6 6 6zm23-2h-23c-2.206 0-4-1.794-4-4 0-2.186 1.764-3.963 3.847-4h.242v-.001l.845.023.142-.85c.402-2.417 2.473-4.172 4.924-4.172.692 0 1.365.141 2.001.42l1.008.441.344-1.045c.946-2.88 3.617-4.816 6.647-4.816 3.86 0 7 3.14 7 6.971l-.005.965.835.14c2.417.404 4.17 2.475 4.17 4.924 0 2.757-2.243 5-5 5z"/><path d="m48.293 10.707 3.293 3.293-3.293 3.293 1.414 1.414 4.707-4.707-4.707-4.707z"/><path d="m42.293 9.293-4.707 4.707 4.707 4.707 1.414-1.414-3.293-3.293 3.293-3.293z"/><path d="m40.901 13h10.198v2h-10.198z" transform="matrix(.196 -.981 .981 .196 23.242 56.357)"/><path d="m11 26c0 1.654 1.346 3 3 3h1v-2h-1c-.551 0-1-.449-1-1 0-.771-.301-1.468-.78-2 .48-.532.78-1.229.78-2 0-.551.449-1 1-1h1v-2h-1c-1.654 0-3 1.346-3 3 0 .551-.449 1-1 1h-1v2h1c.551 0 1 .449 1 1z"/><path d="m33 38c0-.551.449-1 1-1h1v-2h-1c-.551 0-1-.449-1-1 0-1.654-1.346-3-3-3h-1v2h1c.551 0 1 .449 1 1 0 .771.301 1.468.78 2-.48.532-.78 1.229-.78 2 0 .551-.449 1-1 1h-1v2h1c1.654 0 3-1.346 3-3z"/><path d="m17 19h2v2h-2z"/><path d="m21 19h4v2h-4z"/><path d="m17 23h8v2h-8z"/><path d="m17 27h8v2h-8z"/><path d="m21 39h2v2h-2z"/><path d="m25 39h2v2h-2z"/><path d="m9 39h10v2h-10z"/><path d="m9 35h18v2h-18z"/><path d="m9 31h2v2h-2z"/><path d="m13 31h14v2h-14z"/></g><g><g><path d="m55 41h-18v-16h18z" fill="#f0bc5e"/></g></g></g></svg>