<svg enable-background="new 0 0 256 256" height="512" viewBox="0 0 256 256" width="512" xmlns="http://www.w3.org/2000/svg"><g id="Layer_63"><g><g><g><path d="m188.741 88.552h-121.482c-1.278 0-2.348 1.021-2.354 2.299 0 .079 0 .159.001.238.096 6.325 5.529 11.279 11.855 11.279h102.477c6.326 0 11.76-4.954 11.855-11.279.001-.079.002-.159.001-.238-.005-1.277-1.075-2.299-2.353-2.299z" fill="#edf4fc"/></g></g><g><g><path d="m174.04 8.89h-92.08c-3.606 0-6.557 2.95-6.557 6.557v66.549c0 3.606 2.95 6.557 6.557 6.557h92.079c3.606 0 6.557-2.95 6.557-6.557v-66.55c0-3.606-2.95-6.556-6.556-6.556z" fill="#5290db"/></g></g><g><g><path d="m175.998 18.356h-95.996c-2.529 0-4.598 2.069-4.598 4.598v50.985c0 2.529 2.069 4.598 4.598 4.598h95.995c2.529 0 4.598-2.069 4.598-4.598v-50.985c.001-2.529-2.068-4.598-4.597-4.598z" fill="#fcdd86"/></g></g><g><g><path d="m93.794 171.025h-75.874c-3.26 0-5.928 2.668-5.928 5.928v51.738c0 3.26 2.668 5.928 5.928 5.928h75.874c3.26 0 5.928-2.668 5.928-5.928v-51.738c0-3.261-2.667-5.928-5.928-5.928z" fill="#5290db"/></g></g><g><g><path d="m107.086 234.618h-102.458c-1.155 0-2.123.923-2.128 2.079 0 .072 0 .143.001.215.087 5.719 4.999 10.198 10.719 10.198h85.275c5.72 0 10.632-4.479 10.719-10.198.001-.072.002-.143.001-.215-.006-1.155-.973-2.079-2.129-2.079z" fill="#edf4fc"/></g></g><g><g><path d="m238.08 171.025h-75.874c-3.26 0-5.928 2.668-5.928 5.928v51.738c0 3.26 2.668 5.928 5.928 5.928h75.874c3.26 0 5.928-2.668 5.928-5.928v-51.738c0-3.261-2.668-5.928-5.928-5.928z" fill="#5290db"/></g></g><g><g><path d="m251.372 234.618h-102.458c-1.155 0-2.123.923-2.128 2.079 0 .072 0 .143.001.215.086 5.719 4.999 10.198 10.719 10.198h85.275c5.72 0 10.632-4.479 10.719-10.198.001-.072.002-.143.001-.215-.006-1.155-.974-2.079-2.129-2.079z" fill="#edf4fc"/></g></g><g><g><path d="m95.564 179.583h-79.414c-2.287 0-4.158 1.871-4.158 4.158v37.666c0 2.287 1.871 4.158 4.158 4.158h79.415c2.287 0 4.158-1.871 4.158-4.158v-37.666c-.001-2.287-1.872-4.158-4.159-4.158z" fill="#9be5f9"/></g></g><g><g><path d="m239.85 179.583h-79.415c-2.287 0-4.158 1.871-4.158 4.158v37.666c0 2.287 1.871 4.158 4.158 4.158h79.415c2.287 0 4.158-1.871 4.158-4.158v-37.666c0-2.287-1.871-4.158-4.158-4.158z" fill="#9be5f9"/></g></g><g><g><path d="m179.238 104.869h-102.476c-7.801 0-14.241-6.165-14.354-13.742l-.002-.291c.012-2.636 2.189-4.783 4.854-4.783h121.482c2.664 0 4.842 2.147 4.854 4.787l-.001.28c-.116 7.584-6.556 13.749-14.357 13.749zm-111.832-13.816c.079 4.866 4.273 8.816 9.355 8.816h102.477c5.085 0 9.281-3.955 9.355-8.816zm121.335 0h.01z"/></g></g><g><g><path d="m200.5 161.839c-1.381 0-2.5-1.119-2.5-2.5v-20.8h-140v20.8c0 1.381-1.119 2.5-2.5 2.5s-2.5-1.119-2.5-2.5v-23.3c0-1.381 1.119-2.5 2.5-2.5h145c1.381 0 2.5 1.119 2.5 2.5v23.3c0 1.381-1.119 2.5-2.5 2.5z"/></g></g><g><g><path d="m128 138.539c-1.381 0-2.5-1.119-2.5-2.5v-33.149c0-1.381 1.119-2.5 2.5-2.5s2.5 1.119 2.5 2.5v33.149c0 1.381-1.119 2.5-2.5 2.5z"/></g></g><g><g><path d="m114.195 61.576c-.64 0-1.28-.244-1.768-.732l-10.922-10.923c-.976-.977-.976-2.559 0-3.535l10.922-10.922c.976-.977 2.56-.977 3.535 0 .977.977.977 2.559 0 3.535l-9.154 9.154 9.154 9.155c.976.977.976 2.56 0 3.535-.487.489-1.128.733-1.767.733z"/></g></g><g><g><path d="m141.805 61.576c-.64 0-1.279-.244-1.768-.732-.977-.977-.977-2.559 0-3.535l9.155-9.155-9.155-9.154c-.977-.976-.977-2.559 0-3.535s2.559-.977 3.535 0l10.923 10.922c.469.469.732 1.104.732 1.768s-.264 1.299-.732 1.768l-10.923 10.923c-.488.486-1.128.73-1.767.73z"/></g></g><g><g><path d="m121.296 68.125c-.298 0-.601-.054-.895-.167-1.289-.494-1.933-1.94-1.438-3.229l13.408-34.94c.495-1.288 1.936-1.936 3.229-1.438 1.289.494 1.934 1.94 1.438 3.229l-13.408 34.94c-.381.994-1.329 1.605-2.334 1.605z"/></g></g><g><g><path d="m84.734 194.404h-58.116c-1.381 0-2.5-1.119-2.5-2.5s1.119-2.5 2.5-2.5h58.117c1.381 0 2.5 1.119 2.5 2.5s-1.12 2.5-2.501 2.5z"/></g></g><g><g><path d="m84.734 205.005h-58.116c-1.381 0-2.5-1.119-2.5-2.5s1.119-2.5 2.5-2.5h58.117c1.381 0 2.5 1.119 2.5 2.5s-1.12 2.5-2.501 2.5z"/></g></g><g><g><path d="m84.734 215.605h-58.116c-1.381 0-2.5-1.119-2.5-2.5s1.119-2.5 2.5-2.5h58.117c1.381 0 2.5 1.119 2.5 2.5s-1.12 2.5-2.501 2.5z"/></g></g><g><g><path d="m229.734 194.404h-58.116c-1.381 0-2.5-1.119-2.5-2.5s1.119-2.5 2.5-2.5h58.116c1.381 0 2.5 1.119 2.5 2.5s-1.119 2.5-2.5 2.5z"/></g></g><g><g><path d="m229.734 205.005h-58.116c-1.381 0-2.5-1.119-2.5-2.5s1.119-2.5 2.5-2.5h58.116c1.381 0 2.5 1.119 2.5 2.5s-1.119 2.5-2.5 2.5z"/></g></g><g><g><path d="m229.734 215.605h-58.116c-1.381 0-2.5-1.119-2.5-2.5s1.119-2.5 2.5-2.5h58.116c1.381 0 2.5 1.119 2.5 2.5s-1.119 2.5-2.5 2.5z"/></g></g><g><g><path d="m44.705 144.882c-4.498-.838-8.043-4.31-8.898-8.716-.043-.221-.352-.221-.395 0-.855 4.406-4.4 7.879-8.898 8.716-.226.042-.226.345 0 .387 4.498.838 8.043 4.31 8.898 8.717.043.221.352.221.395 0 .855-4.406 4.4-7.879 8.898-8.717.226-.042.226-.344 0-.387z" fill="#f5c84c"/></g></g><g><g><path d="m210.893 116.954c-2.829-.527-5.059-2.711-5.597-5.483-.027-.139-.221-.139-.248 0-.538 2.771-2.768 4.956-5.597 5.483-.142.026-.142.217 0 .243 2.829.527 5.059 2.711 5.597 5.483.027.139.221.139.248 0 .538-2.771 2.768-4.956 5.597-5.483.143-.026.143-.216 0-.243z" fill="#fc657e"/></g></g><g><g><path d="m194.442 23.487h2.33v-2.33c0-1.744 1.413-3.157 3.157-3.157s3.157 1.413 3.157 3.157v2.33h2.329c1.744 0 3.157 1.413 3.157 3.157s-1.413 3.157-3.157 3.157h-2.329v2.33c0 1.744-1.413 3.157-3.157 3.157s-3.157-1.413-3.157-3.157v-2.33h-2.33c-1.744 0-3.157-1.413-3.157-3.157s1.413-3.157 3.157-3.157z" fill="#70d6f9"/></g></g><g><g><circle cx="194.721" cy="51.623" fill="#f5c84c" r="3.377"/></g></g><g><g><circle cx="141.721" cy="202.623" fill="#fc657e" r="3.377"/></g></g><g><g><circle cx="51.721" cy="120.623" fill="#87d147" r="3.377"/></g></g><g><g><path d="m174.04 91.053c-1.381 0-2.5-1.119-2.5-2.5s1.119-2.5 2.5-2.5c2.236 0 4.056-1.819 4.056-4.057v-66.55c0-2.237-1.819-4.057-4.056-4.057h-92.08c-2.237 0-4.057 1.819-4.057 4.057v66.55c0 2.237 1.82 4.057 4.057 4.057 1.381 0 2.5 1.119 2.5 2.5s-1.119 2.5-2.5 2.5c-4.994 0-9.057-4.063-9.057-9.057v-66.55c0-4.994 4.063-9.057 9.057-9.057h92.08c4.993 0 9.056 4.063 9.056 9.057v66.55c0 4.994-4.063 9.057-9.056 9.057z"/></g></g><g><g><path d="m175.998 81.038h-95.996c-3.914 0-7.099-3.185-7.099-7.099 0-1.381 1.119-2.5 2.5-2.5s2.5 1.119 2.5 2.5c0 1.157.941 2.099 2.099 2.099h95.996c1.156 0 2.098-.941 2.098-2.099 0-1.381 1.119-2.5 2.5-2.5s2.5 1.119 2.5 2.5c0 3.915-3.184 7.099-7.098 7.099z"/></g></g><g><g><path d="m180.596 25.454c-1.381 0-2.5-1.119-2.5-2.5 0-1.157-.941-2.099-2.098-2.099h-95.996c-1.157 0-2.099.941-2.099 2.099 0 1.381-1.119 2.5-2.5 2.5s-2.5-1.119-2.5-2.5c0-3.914 3.185-7.099 7.099-7.099h95.996c3.914 0 7.098 3.185 7.098 7.099 0 1.381-1.119 2.5-2.5 2.5z"/></g></g><g><g><path d="m93.794 237.118c-1.381 0-2.5-1.119-2.5-2.5s1.119-2.5 2.5-2.5c1.89 0 3.428-1.538 3.428-3.428v-51.737c0-1.891-1.538-3.429-3.428-3.429h-75.874c-1.89 0-3.428 1.538-3.428 3.429v51.737c0 1.89 1.538 3.428 3.428 3.428 1.381 0 2.5 1.119 2.5 2.5s-1.119 2.5-2.5 2.5c-4.647 0-8.428-3.78-8.428-8.428v-51.737c0-4.647 3.781-8.429 8.428-8.429h75.874c4.647 0 8.428 3.781 8.428 8.429v51.737c0 4.648-3.781 8.428-8.428 8.428z"/></g></g><g><g><path d="m98.495 249.61h-85.275c-7.183 0-13.112-5.68-13.218-12.66l-.002-.253c.012-2.53 2.088-4.579 4.628-4.579h102.458c2.54 0 4.616 2.049 4.628 4.567l-.002.278c-.104 6.968-6.034 12.647-13.217 12.647zm-93.486-12.492c.205 4.16 3.833 7.492 8.21 7.492h85.275c4.382 0 8.013-3.339 8.211-7.492zm102.077 0h.01z"/></g></g><g><g><path d="m238.08 237.118c-1.381 0-2.5-1.119-2.5-2.5s1.119-2.5 2.5-2.5c1.89 0 3.428-1.538 3.428-3.428v-51.737c0-1.891-1.538-3.429-3.428-3.429h-75.874c-1.89 0-3.428 1.538-3.428 3.429v51.737c0 1.89 1.538 3.428 3.428 3.428 1.381 0 2.5 1.119 2.5 2.5s-1.119 2.5-2.5 2.5c-4.647 0-8.428-3.78-8.428-8.428v-51.737c0-4.647 3.78-8.429 8.428-8.429h75.874c4.647 0 8.428 3.781 8.428 8.429v51.737c0 4.648-3.78 8.428-8.428 8.428z"/></g></g><g><g><path d="m242.78 249.61h-85.274c-7.184 0-13.113-5.68-13.219-12.661l-.001-.286c.011-2.495 2.087-4.545 4.628-4.545h102.458c2.539 0 4.615 2.049 4.628 4.566l-.001.262c-.106 6.985-6.036 12.664-13.219 12.664zm-93.486-12.492c.196 4.151 3.828 7.492 8.212 7.492h85.274c4.382 0 8.013-3.339 8.211-7.492zm102.078 0h.01z"/></g></g><g><g><path d="m95.564 228.064h-79.414c-3.671 0-6.658-2.987-6.658-6.658 0-1.381 1.119-2.5 2.5-2.5s2.5 1.119 2.5 2.5c0 .898.759 1.658 1.658 1.658h79.415c.898 0 1.658-.76 1.658-1.658 0-1.381 1.119-2.5 2.5-2.5s2.5 1.119 2.5 2.5c-.001 3.671-2.988 6.658-6.659 6.658z"/></g></g><g><g><path d="m99.722 186.24c-1.381 0-2.5-1.119-2.5-2.5 0-.898-.759-1.657-1.658-1.657h-79.414c-.898 0-1.658.759-1.658 1.657 0 1.381-1.119 2.5-2.5 2.5s-2.5-1.119-2.5-2.5c0-3.671 2.987-6.657 6.658-6.657h79.415c3.671 0 6.658 2.986 6.658 6.657-.001 1.381-1.12 2.5-2.501 2.5z"/></g></g><g><g><path d="m239.85 228.064h-79.414c-3.671 0-6.657-2.987-6.657-6.658 0-1.381 1.119-2.5 2.5-2.5s2.5 1.119 2.5 2.5c0 .914.743 1.658 1.657 1.658h79.414c.898 0 1.658-.76 1.658-1.658 0-1.381 1.119-2.5 2.5-2.5s2.5 1.119 2.5 2.5c0 3.671-2.987 6.658-6.658 6.658z"/></g></g><g><g><path d="m244.008 186.24c-1.381 0-2.5-1.119-2.5-2.5 0-.898-.76-1.657-1.658-1.657h-79.414c-.898 0-1.657.759-1.657 1.657 0 1.381-1.119 2.5-2.5 2.5s-2.5-1.119-2.5-2.5c0-3.671 2.986-6.657 6.657-6.657h79.414c3.671 0 6.658 2.986 6.658 6.657 0 1.381-1.119 2.5-2.5 2.5z"/></g></g></g></g></svg>