<svg height="512" viewBox="0 0 256 256" width="512" xmlns="http://www.w3.org/2000/svg"><rect fill="#cecece" height="151.106" rx="13.665" width="219.26" x="18.37" y="31.11"/><path d="m28.37 168.552v-123.777a13.681 13.681 0 0 1 13.665-13.664h-10a13.681 13.681 0 0 0 -13.665 13.664v123.777a13.681 13.681 0 0 0 13.665 13.665h10a13.681 13.681 0 0 1 -13.665-13.665z" fill="#afafaf"/><path d="m227.63 168.552v-123.777a13.681 13.681 0 0 0 -13.665-13.665h10a13.681 13.681 0 0 1 13.665 13.665v123.777a13.681 13.681 0 0 1 -13.665 13.665h-10a13.681 13.681 0 0 0 13.665-13.665z" fill="#e2e2e2"/><rect fill="#63bce7" height="122.288" rx="5.256" width="202.442" x="26.779" y="39.519"/><path d="m36.779 156.552v-111.777a5.271 5.271 0 0 1 5.256-5.256h-10a5.271 5.271 0 0 0 -5.256 5.256v111.777a5.271 5.271 0 0 0 5.256 5.256h10a5.271 5.271 0 0 1 -5.256-5.256z" fill="#6377e7"/><path d="m219.221 156.552v-111.777a5.271 5.271 0 0 0 -5.256-5.256h10a5.271 5.271 0 0 1 5.256 5.256v111.777a5.271 5.271 0 0 1 -5.256 5.256h-10a5.271 5.271 0 0 0 5.256-5.256z" fill="#63e2e7"/><circle cx="128" cy="154.056" fill="#9e9e9e" r="39.978"/><path d="m98.022 154.056a39.976 39.976 0 0 1 34.978-39.656 39.978 39.978 0 1 0 0 79.311 39.976 39.976 0 0 1 -34.978-39.655z" fill="#707070"/><path d="m109.249 194.033h37.5a44.65 44.65 0 0 1 44.65 44.65 0 0 0 0 1 0 0h-126.799a0 0 0 0 1 0 0 44.65 44.65 0 0 1 44.65-44.65z" fill="#f8af23"/><path d="m119.249 194.033h-10a44.649 44.649 0 0 0 -44.649 44.65h10a44.649 44.649 0 0 1 44.649-44.65z" fill="#f87023"/><rect fill="#f8af23" height="85.951" rx="10" width="155" x="50.5" y="14.712"/><path d="m60.5 90.663v-65.951a10 10 0 0 1 10-10h-10a10 10 0 0 0 -10 10v65.951a10 10 0 0 0 10 10h10a10 10 0 0 1 -10-10z" fill="#f87023"/><path d="m195.5 90.663v-65.951a10 10 0 0 0 -10-10h10a10 10 0 0 1 10 10v65.951a10 10 0 0 1 -10 10h-10a10 10 0 0 0 10-10z" fill="#f8d323"/><path d="m213.539 7.26a3.126 3.126 0 0 1 0 4.421l-4.613 4.613a3.126 3.126 0 0 1 -4.421 0 3.126 3.126 0 0 1 0-4.421l4.613-4.613a3.126 3.126 0 0 1 4.421 0z" fill="#f46275"/><path d="m155.335 29.219h60.129v12.362h-60.129z" fill="#63bce7" transform="matrix(.707 -.707 .707 .707 29.271 141.466)"/><path d="m139.357 59.791h29.036v14.266h-29.036z" fill="#f46275" transform="matrix(.707 -.707 .707 .707 -2.254 128.408)"/><path d="m147.98 81.56-12.785 4.045 4.044-12.786z" fill="#63bce7"/><g fill="#3f3679"><path d="m27.323 248.156h-18a1.5 1.5 0 1 0 0 3h18a1.5 1.5 0 1 0 0-3z"/><path d="m246.68 248.156h-18a1.5 1.5 0 0 0 0 3h18a1.5 1.5 0 0 0 0-3z"/><path d="m218.479 248.156h-180.958a1.5 1.5 0 0 0 0 3h180.958a1.5 1.5 0 0 0 0-3z"/><path d="m9.32 240.183h237.36a1.5 1.5 0 0 0 0-3h-53.818a46.2 46.2 0 0 0 -46.111-44.65h-3.292a41.59 41.59 0 0 0 13.494-8.817h67.013a15.182 15.182 0 0 0 15.164-15.165v-123.776a15.182 15.182 0 0 0 -15.164-15.165h-16.966v-4.9c0-.016 0-.031 0-.047l5.094-5.094a1.5 1.5 0 0 0 0-2.121l-1.1-1.1 3.61-3.61a4.626 4.626 0 0 0 -6.546-6.538l-3.61 3.61-1.1-1.1a1.544 1.544 0 0 0 -2.121 0l-4.582 4.583a1.5 1.5 0 0 0 -.256-.046c-.292-.022-.59-.034-.888-.034h-135.001a11.513 11.513 0 0 0 -11.5 11.499v4.9h-16.966a15.182 15.182 0 0 0 -15.164 15.163v123.777a15.182 15.182 0 0 0 15.164 15.165h67.013a41.591 41.591 0 0 0 13.494 8.817h-3.292a46.2 46.2 0 0 0 -46.111 44.65h-53.818a1.5 1.5 0 0 0 0 3zm214.646-207.573a12.178 12.178 0 0 1 12.164 12.165v123.777a12.178 12.178 0 0 1 -12.164 12.165h-64.225a41.367 41.367 0 0 0 8.684-17.409h55.541a6.763 6.763 0 0 0 6.755-6.755v-111.778a6.763 6.763 0 0 0 -6.755-6.755h-16.966v-5.41zm-137.444 121.446a41.628 41.628 0 0 0 .472 6.251h-54.96a3.759 3.759 0 0 1 -3.755-3.755v-111.777a3.759 3.759 0 0 1 3.755-3.755h16.966v49.644a11.513 11.513 0 0 0 11.5 11.5h135a11.513 11.513 0 0 0 11.5-11.5v-49.644h16.966a3.759 3.759 0 0 1 3.755 3.755v111.777a3.759 3.759 0 0 1 -3.755 3.755h-54.96a41.479 41.479 0 1 0 -82.484-6.251zm123.657-145.736a1.626 1.626 0 0 1 2.3 2.3l-3.61 3.61-2.3-2.3zm-7.892 3.571 6.62 6.62-40.4 40.4-6.62-6.62zm-127.737 76.047v-28.75h51.95v28.75zm53.45-31.75h-53.45v-28.75h106.9v1.048l-21.758 21.759a1.494 1.494 0 0 0 -1.656.309l-20.536 20.531a1.5 1.5 0 0 0 0 2.121l.03.03-3.77 11.916a1.5 1.5 0 0 0 1.882 1.883l11.917-3.769.029.029a1.5 1.5 0 0 0 2.121 0l20.532-20.532a1.49 1.49 0 0 0 .312-1.659l10.897-10.893v37.727h-51.95v-30.25a1.5 1.5 0 0 0 -1.5-1.5zm17.173 24.687-7.673 2.425 2.428-7.677zm3.48-.763-7.966-7.966 18.41-18.41 7.967 7.966zm-96.653-55.4a8.51 8.51 0 0 1 8.5-8.5h133.224l-9.332 9.333a1.5 1.5 0 0 0 -1.441-1.107h-109.901a1.5 1.5 0 0 0 -1.5 1.5v63.5a1.5 1.5 0 0 0 1.5 1.5h109.9a1.5 1.5 0 0 0 1.5-1.5v-42.1c0-.038-.008-.073-.011-.111l19.561-19.566v63a8.51 8.51 0 0 1 -8.5 8.5h-135a8.51 8.51 0 0 1 -8.5-8.5zm-32.13 143.84v-123.777a12.178 12.178 0 0 1 12.164-12.165h16.966v5.41h-16.966a6.763 6.763 0 0 0 -6.755 6.755v111.777a6.763 6.763 0 0 0 6.755 6.755h55.542a41.366 41.366 0 0 0 8.683 17.409h-64.225a12.178 12.178 0 0 1 -12.164-12.164zm69.652-14.5a38.478 38.478 0 1 1 38.478 38.481 38.521 38.521 0 0 1 -38.478-38.477zm19.727 41.478h37.5a43.2 43.2 0 0 1 43.124 41.65h-123.748a43.2 43.2 0 0 1 43.124-41.647z"/><circle cx="73.05" cy="25.938" r="6.292"/><circle cx="128" cy="57.688" r="6.292"/><circle cx="73.05" cy="89.438" r="6.292"/></g></svg>