<?xml version="1.0"?>
<svg xmlns="http://www.w3.org/2000/svg" xmlns:xlink="http://www.w3.org/1999/xlink" xmlns:svgjs="http://svgjs.com/svgjs" version="1.1" width="512" height="512" x="0" y="0" viewBox="0 0 64 64" style="enable-background:new 0 0 512 512" xml:space="preserve" class=""><g><g xmlns="http://www.w3.org/2000/svg"><g><path d="m21.362 11.595-2.979-5.197-2.399 1.411v-2.809h-5.967l.018 2.81-2.418-1.412-2.979 5.197 2.434 1.395-2.434 1.415 2.979 5.197 2.345-1.439.055.036v2.801h5.967l-.005-2.802 2.404 1.404 2.979-5.197-2.418-1.405zm-8.362 3.405c-1.105 0-2-.895-2-2s.895-2 2-2 2 .895 2 2-.895 2-2 2z" fill="#fe9603" data-original="#f0bc5e" style="" class=""/></g><g><g><path d="m51 59c-2.813 0-7-5.383-7-9 0-3.86 3.141-7 7-7s7 3.14 7 7c0 3.617-4.187 9-7 9z" fill="#fe9603" data-original="#f0bc5e" style="" class=""/></g></g><g><g><path d="m53 19h-6c-2.206 0-4-1.794-4-4s1.794-4 4-4c.114 0 .228.005.34.014.821-2.378 3.058-4.014 5.66-4.014 3.309 0 6 2.691 6 6s-2.691 6-6 6z" fill="#fe9603" data-original="#f0bc5e" style="" class=""/></g></g><g><path d="m13 10c-1.654 0-3 1.346-3 3s1.346 3 3 3 3-1.346 3-3-1.346-3-3-3zm0 4c-.552 0-1-.449-1-1s.448-1 1-1 1 .449 1 1-.448 1-1 1z" fill="#000000" data-original="#000000" style="" class=""/><path d="m51 39c-2.949 0-5.649 1.074-7.741 2.845l-2.811-2.811c1.591-1.909 2.552-4.361 2.552-7.034s-.961-5.125-2.552-7.034l2.811-2.811c2.092 1.771 4.792 2.845 7.741 2.845 6.617 0 12-5.383 12-12s-5.383-12-12-12-12 5.383-12 12c0 2.949 1.074 5.649 2.845 7.741l-2.812 2.812c-1.908-1.592-4.36-2.553-7.033-2.553s-5.125.961-7.034 2.552l-2.812-2.812c1.772-2.091 2.846-4.791 2.846-7.74 0-6.617-5.383-12-12-12s-12 5.383-12 12 5.383 12 12 12c2.949 0 5.649-1.074 7.741-2.845l2.811 2.811c-1.591 1.909-2.552 4.361-2.552 7.034s.961 5.125 2.552 7.034l-2.811 2.811c-2.092-1.771-4.792-2.845-7.741-2.845-6.617 0-12 5.383-12 12s5.383 12 12 12 12-5.383 12-12c0-2.949-1.074-5.649-2.845-7.741l2.812-2.812c1.908 1.592 4.36 2.553 7.033 2.553s5.125-.961 7.034-2.552l2.812 2.812c-1.772 2.091-2.846 4.791-2.846 7.74 0 6.617 5.383 12 12 12s12-5.383 12-12-5.383-12-12-12zm-22-7c0-.669.087-1.339.223-2h5.555c.136.66.222 1.331.222 2s-.087 1.339-.223 2h-5.555c-.136-.66-.222-1.331-.222-2zm12 0c0 .688-.085 1.356-.232 2h-3.949c.114-.658.181-1.327.181-2s-.067-1.342-.181-2h3.949c.147.644.232 1.312.232 2zm-4.682-4c-.605-1.884-1.5-3.554-2.242-4.749 2.622.622 4.799 2.391 5.975 4.749zm-4.317-4.274c.645.974 1.551 2.509 2.201 4.274h-4.402c.651-1.763 1.556-3.299 2.201-4.274zm-4.319 4.274h-3.732c1.177-2.358 3.353-4.127 5.975-4.749-.742 1.195-1.638 2.865-2.243 4.749zm6.518 8c-.65 1.763-1.556 3.299-2.2 4.274-.646-.974-1.552-2.509-2.202-4.274zm-4.275 4.749c-2.622-.622-4.799-2.391-5.975-4.749h3.733c.604 1.884 1.5 3.554 2.242 4.749zm6.393-4.749h3.733c-1.177 2.358-3.353 4.127-5.975 4.749.742-1.195 1.637-2.865 2.242-4.749zm14.682-33c5.514 0 10 4.486 10 10s-4.486 10-10 10-10-4.486-10-10 4.486-10 10-10zm-38 20c-5.514 0-10-4.486-10-10s4.486-10 10-10 10 4.486 10 10-4.486 10-10 10zm10.232 7h3.95c-.115.658-.182 1.327-.182 2s.067 1.342.181 2h-3.95c-.146-.644-.231-1.312-.231-2s.085-1.356.232-2zm-10.232 31c-5.514 0-10-4.486-10-10s4.486-10 10-10 10 4.486 10 10-4.486 10-10 10zm38 0c-5.514 0-10-4.486-10-10s4.486-10 10-10 10 4.486 10 10-4.486 10-10 10z" fill="#000000" data-original="#000000" style="" class=""/><path d="m18 55h-2v-8h-2v8h-2v-6h-2v6h-2v-4h-2v6h14v-12h-2z" fill="#000000" data-original="#000000" style="" class=""/><path d="m51 47c-1.654 0-3 1.346-3 3s1.346 3 3 3 3-1.346 3-3-1.346-3-3-3zm0 4c-.552 0-1-.449-1-1s.448-1 1-1 1 .449 1 1-.448 1-1 1z" fill="#000000" data-original="#000000" style="" class=""/></g></g></g></svg>
