<svg height="512" viewBox="0 0 192 192" width="512" xmlns="http://www.w3.org/2000/svg"><g id="_23-teamwork" data-name="23-teamwork"><g id="Glyph"><circle cx="152" cy="72" r="24"/><circle cx="40" cy="72" r="24"/><circle cx="96" cy="56" r="32"/><path d="m176 104h-28.3a31.8 31.8 0 0 1 4.3 16v56h32a8 8 0 0 0 8-8v-48a16 16 0 0 0 -16-16z"/><path d="m44.305 104h-28.305a16 16 0 0 0 -16 16v48a8 8 0 0 0 8 8h32v-56a31.8 31.8 0 0 1 4.305-16z"/><path d="m120 88h-8l-16 48-16-48h-8a24 24 0 0 0 -24 24v72a8 8 0 0 0 8 8h80a8 8 0 0 0 8-8v-72a24 24 0 0 0 -24-24z"/></g></g></svg>