<svg height="496pt" viewBox="0 0 496 496" width="496pt" xmlns="http://www.w3.org/2000/svg"><path d="m248 16c50.679688 0 98.824219 16.039062 139.214844 46.390625l9.617187-12.789063c-43.199219-32.449218-94.664062-49.601562-148.832031-49.601562-37.648438 0-73.808594 8.222656-107.472656 24.441406l6.9375 14.414063c31.488281-15.167969 65.320312-22.855469 100.535156-22.855469zm0 0"/><g fill="#f0bc5e"><path d="m384 320h93c7.136719-22.726562 11-46.910156 11-72 0-8.105469-.433594-16.105469-1.214844-24h-102.785156zm0 0"/><path d="m8 248c0 25.089844 3.863281 49.273438 11 72h93v-96h-102.734375c-.792969 7.902344-1.265625 15.894531-1.265625 24zm0 0"/><path d="m304 272c0 30.929688-25.070312 56-56 56s-56-25.070312-56-56 25.070312-56 56-56 56 25.070312 56 56zm0 0"/><path d="m448 0h48v152h-48zm0 0"/><path d="m384 24h48v128h-48zm0 0"/><path d="m144 120c0-8.839844 7.160156-16 16-16h16v-35.894531l-17.136719-3.425781c-1.167969-3.535157-2.589843-6.984376-4.261719-10.296876l9.695313-14.535156-28.136719-28.144531-14.542968 9.695313c-3.320313-1.679688-6.761719-3.101563-10.296876-4.261719l-3.425781-17.136719h-39.789062l-3.425781 17.136719c-3.535157 1.160156-6.976563 2.582031-10.296876 4.261719l-14.550781-9.695313-28.128906 28.136719 9.695313 14.535156c-1.671876 3.320312-3.101563 6.769531-4.261719 10.304688l-17.136719 3.425781v39.796875l17.136719 3.425781c1.167969 3.535156 2.589843 6.984375 4.261719 10.296875l-9.695313 14.535156 28.144531 28.144532 14.535156-9.695313c3.3125 1.671875 6.761719 3.101563 10.296876 4.261719l3.425781 17.128906h39.796875l3.425781-17.136719c3.535156-1.167969 6.984375-2.589843 10.296875-4.261719l14.535156 9.695313 7.839844-7.839844zm-56 0c-17.671875 0-32-14.328125-32-32s14.328125-32 32-32 32 14.328125 32 32-14.328125 32-32 32zm0 0"/></g><path d="m40 264h16v16h-16zm0 0"/><path d="m72 264h40v16h-40zm0 0"/><path d="m40 224h16v16h-16zm0 0"/><path d="m40 304h16v16h-16zm0 0"/><path d="m440 264h16v16h-16zm0 0"/><path d="m384 264h40v16h-40zm0 0"/><path d="m440 224h16v16h-16zm0 0"/><path d="m440 304h16v16h-16zm0 0"/><path d="m496 144h-136v-24c0-13.230469-10.769531-24-24-24h-176c-13.230469 0-24 10.769531-24 24v116.6875l-12.6875-12.6875h-51.3125v16h44.6875l24 24h35.464844l1.304687-6.40625c1.648438-8.105469 4.664063-15.648438 8.742188-22.457031 4.328125 2.742187 10.449219 6.289062 17.722656 9.695312-2.425781 8.359375-3.921875 17.441407-3.921875 27.167969s1.496094 18.808594 3.910156 27.167969c-7.269531 3.40625-13.390625 6.960937-17.71875 9.695312-4.078125-6.808593-7.09375-14.359375-8.742187-22.457031l-1.296875-6.40625h-35.464844l-24 24h-44.6875v16h51.3125l12.6875-12.6875v132.6875c0 4.894531 1.488281 9.441406 4.015625 13.238281-73.671875-38.910156-124.015625-116.285156-124.015625-205.238281 0-31.175781 6.046875-61.246094 17.953125-89.59375l-12.105469-12.101562c-14.441406 32.023437-21.847656 66.191406-21.847656 101.695312 0 136.742188 111.246094 248 248 248s248-111.257812 248-248c0-30.40625-5.414062-59.953125-16.078125-88h16.078125zm-336-32h176c4.414062 0 8 3.59375 8 8v24h-192v-24c0-4.40625 3.585938-8 8-8zm3.320312 136h-11.320312v-88h192v88h-11.320312c-10.601563-37.457031-45.207032-64-84.679688-64s-74.078125 26.542969-84.679688 64zm84.695313-45.144531c6.039063 5.945312 16.273437 17.410156 23.558594 32.953125-7.519531 2.464844-15.574219 4.191406-23.574219 4.191406-7.984375 0-16.03125-1.71875-23.535156-4.183594 7.296875-15.519531 17.519531-27 23.550781-32.960937zm22.160156.730469c11.398438 3.71875 21.632813 10.214843 29.832031 18.773437-3.519531 2.175781-8.160156 4.816406-13.542968 7.410156-4.792969-10.441406-10.730469-19.226562-16.289063-26.183593zm-74.183593 18.773437c8.191406-8.558594 18.421874-15.054687 29.832031-18.773437-5.558594 6.957031-11.496094 15.742187-16.289063 26.183593-5.382812-2.59375-10.023437-5.234375-13.542968-7.410156zm20.007812 49.640625c0-7.488281 1.144531-14.542969 2.945312-21.144531 9.078126 3.007812 19.007813 5.144531 29.054688 5.144531 10.054688 0 19.984375-2.144531 29.070312-5.152344 1.792969 6.601563 2.929688 13.65625 2.929688 21.152344 0 7.488281-1.144531 14.542969-2.945312 21.144531-9.078126-3.007812-19.007813-5.144531-29.054688-5.144531-10.054688 0-19.984375 2.144531-29.070312 5.152344-1.792969-6.601563-2.929688-13.65625-2.929688-21.152344zm31.984375 69.144531c-6.039063-5.945312-16.273437-17.410156-23.558594-32.953125 7.519531-2.464844 15.574219-4.191406 23.574219-4.191406 7.984375 0 16.03125 1.71875 23.535156 4.183594-7.296875 15.519531-17.519531 27-23.550781 32.960937zm38.480469-26.914062c5.382812 2.601562 10.023437 5.234375 13.542968 7.410156-8.191406 8.558594-18.421874 15.054687-29.832031 18.773437 5.558594-6.957031 11.496094-15.742187 16.289063-26.183593zm-76.929688 0c4.792969 10.441406 10.730469 19.226562 16.289063 26.183593-11.398438-3.71875-21.632813-10.214843-29.832031-18.773437 3.519531-2.175781 8.160156-4.816406 13.542968-7.410156zm38.464844 45.769531c39.472656 0 74.078125-26.542969 84.679688-64h11.320312v88h-192v-88h11.320312c10.601563 37.457031 45.207032 64 84.679688 64zm-96 40h192v40c0 4.40625-3.585938 8-8 8h-176c-4.414062 0-8-3.59375-8-8zm11.503906 64h168.992188c-26.207032 10.289062-54.6875 16-84.496094 16s-58.289062-5.710938-84.496094-16zm316.496094-216c0 88.953125-50.34375 166.328125-124.015625 205.238281 2.527344-3.796875 4.015625-8.34375 4.015625-13.238281v-134.296875l14.296875 14.296875h49.703125v-16h-43.078125l-24-24h-37.074219l-1.304687 6.40625c-1.648438 8.105469-4.664063 15.648438-8.742188 22.457031-4.328125-2.742187-10.449219-6.289062-17.722656-9.695312 2.425781-8.359375 3.921875-17.441407 3.921875-27.167969s-1.496094-18.808594-3.910156-27.167969c7.269531-3.40625 13.390625-6.960937 17.71875-9.695312 4.078125 6.808593 7.09375 14.359375 8.742187 22.457031l1.296875 6.40625h37.074219l24-24h43.078125v-16h-49.703125l-14.296875 14.296875v-78.296875h102.65625c11.464844 27.921875 17.34375 57.488281 17.34375 88zm0 0"/><path d="m208 416h80v16h-80zm0 0"/><path d="m88 128c22.054688 0 40-17.945312 40-40s-17.945312-40-40-40-40 17.945312-40 40 17.945312 40 40 40zm0-64c13.230469 0 24 10.769531 24 24s-10.769531 24-24 24-24-10.769531-24-24 10.769531-24 24-24zm0 0"/></svg>