<svg id="Layer_5" enable-background="new 0 0 64 64" height="512" viewBox="0 0 64 64" width="512" xmlns="http://www.w3.org/2000/svg"><g><g><path d="m37 38v-24h-8v29h15v-5z" fill="#f0bc5e"/></g><g><g><path d="m14 35c-4.962 0-9-4.038-9-9s4.038-9 9-9 9 4.038 9 9-4.038 9-9 9z" fill="#f0bc5e"/></g></g><g><path d="m27 5h2v2h-2z"/><path d="m31 5h6v2h-6z"/><path d="m27 57h10v2h-10z"/><path d="m60 13h-8v-7c0-2.757-2.243-5-5-5h-30c-2.757 0-5 2.243-5 5v7.17c-6.22.967-11 6.343-11 12.83 0 5.004 2.846 9.349 7 11.521v13.956l4-1.6v8.123c0 2.757 2.243 5 5 5h30c2.757 0 5-2.243 5-5v-25h8c1.654 0 3-1.346 3-3v-14c0-1.654-1.346-3-3-3zm-46-7c0-1.654 1.346-3 3-3h30c1.654 0 3 1.346 3 3v7h-2v-2c0-1.103-.897-2-2-2h-28c-1.103 0-2 .897-2 2v2.17c-.654-.101-1.318-.17-2-.17zm28 27h4v20h-28v-2.323l2 .8v-13.956c4.154-2.172 7-6.517 7-11.521 0-5.772-3.784-10.672-9-12.364v-2.636h28v2h-4c-1.654 0-3 1.346-3 3v14c0 1.654 1.346 3 3 3zm9-8c-1.654 0-3-1.346-3-3s1.346-3 3-3 3 1.346 3 3-1.346 3-3 3zm-1 2h2c2.414 0 4.434 1.721 4.899 4h-11.798c.465-2.279 2.485-4 4.899-4zm-47-1c0-6.065 4.935-11 11-11s11 4.935 11 11-4.935 11-11 11-11-4.935-11-11zm7 12.364c1.261.409 2.604.636 4 .636s2.739-.227 4-.636v10.159l-4-1.6-4 1.6zm40 19.636c0 1.654-1.346 3-3 3h-30c-1.654 0-3-1.346-3-3v-8.923l2 .8v3.123c0 1.103.897 2 2 2h28c1.103 0 2-.897 2-2v-20h2zm11-28c0 .551-.449 1-1 1h-1.08c-.362-2.514-2.06-4.598-4.353-5.506.884-.902 1.433-2.134 1.433-3.494 0-2.757-2.243-5-5-5s-5 2.243-5 5c0 1.36.549 2.592 1.433 3.494-2.293.908-3.991 2.992-4.353 5.506h-1.08c-.551 0-1-.449-1-1v-14c0-.551.449-1 1-1h18c.551 0 1 .449 1 1z"/><path d="m42.168 47.6c-.479-1.097-1.136-2.6-2.665-2.6-1.528 0-2.185 1.502-2.665 2.599-.183.42-.612 1.401-.832 1.401-.222 0-.652-.982-.835-1.401-.481-1.097-1.139-2.599-2.668-2.599s-2.187 1.502-2.667 2.599c-.184.419-.614 1.401-.836 1.401h-.033c-.133-2.198-.788-7-3.967-7-2.953 0-4 4.848-4 9h2c0-4.337 1.165-7 2-7 1.301 0 1.997 3.485 2 6l.001 1h1.999c1.529 0 2.187-1.502 2.667-2.599.184-.419.614-1.401.836-1.401s.652.982.835 1.401c.481 1.097 1.139 2.599 2.668 2.599s2.186-1.502 2.666-2.6c.183-.419.612-1.4.832-1.4s.649.981.832 1.401c.479 1.097 1.136 2.599 2.664 2.599h1v-2h-1c-.22 0-.648-.981-.832-1.4z"/><path d="m29 13h8v2h-8z"/><path d="m29 17h8v2h-8z"/><path d="m29 21h8v2h-8z"/><path d="m29 25h8v2h-8z"/><path d="m29 29h8v2h-8z"/><path d="m29 33h8v2h-8z"/><path d="m29 37h15v2h-15z"/><path d="m42 41h2v2h-2z"/><path d="m29 41h11v2h-11z"/></g></g></svg>