<?xml version="1.0"?>
<svg xmlns="http://www.w3.org/2000/svg" xmlns:xlink="http://www.w3.org/1999/xlink" xmlns:svgjs="http://svgjs.com/svgjs" version="1.1" width="512" height="512" x="0" y="0" viewBox="0 0 512 512" style="enable-background:new 0 0 512 512" xml:space="preserve" class=""><g>
<path xmlns="http://www.w3.org/2000/svg" style="" d="M8.533,76.8v358.4h460.8c18.85,0,34.133-15.283,34.133-34.133V76.8H8.533z" fill="#ffffff" data-original="#d1d1d1"/>
<path xmlns="http://www.w3.org/2000/svg" style="" d="M414.464,76.8c-77.312,197.973-210.517,304.213-308.48,358.4h363.349  c18.85,0,34.133-15.283,34.133-34.133V76.8H414.464z" fill="#ffffff" data-original="#c7c7c7" class=""/>
<rect xmlns="http://www.w3.org/2000/svg" x="204.8" y="162.133" style="" width="102.4" height="51.2" fill="#fe9603" data-original="#4398d1" class=""/>
<g xmlns="http://www.w3.org/2000/svg">
	<rect x="93.867" y="281.6" style="" width="102.4" height="51.2" fill="#fe9603" data-original="#87ced9" class=""/>
	<rect x="315.733" y="281.6" style="" width="102.4" height="51.2" fill="#fe9603" data-original="#87ced9" class=""/>
</g>
<polygon xmlns="http://www.w3.org/2000/svg" style="" points="418.133,503.467 221.867,503.467 196.267,486.4 221.867,469.333 418.133,469.333 " fill="#fe9603" data-original="#4398d1" class=""/>
<rect xmlns="http://www.w3.org/2000/svg" x="375.467" y="469.333" style="" width="17.067" height="34.133" fill="#126099" data-original="#126099" class=""/>
<path xmlns="http://www.w3.org/2000/svg" style="" d="M452.267,8.533v358.4h17.067c18.85,0,34.133,15.283,34.133,34.133v-358.4  c0-18.85-15.283-34.133-34.133-34.133H452.267z" fill="#ffffff" data-original="#ebebeb" class=""/>
<g xmlns="http://www.w3.org/2000/svg">
	<rect x="85.333" y="358.4" style="" width="34.133" height="17.067" fill="#3e8cc7" data-original="#3e8cc7"/>
	<rect x="136.533" y="358.4" style="" width="68.267" height="17.067" fill="#3e8cc7" data-original="#3e8cc7"/>
	<rect x="307.2" y="358.4" style="" width="68.267" height="17.067" fill="#3e8cc7" data-original="#3e8cc7"/>
	<rect x="392.533" y="358.4" style="" width="34.133" height="17.067" fill="#3e8cc7" data-original="#3e8cc7"/>
	<rect x="170.667" y="119.467" style="" width="110.933" height="17.067" fill="#3e8cc7" data-original="#3e8cc7"/>
	<rect x="298.667" y="119.467" style="" width="42.667" height="17.067" fill="#3e8cc7" data-original="#3e8cc7"/>
</g>
<rect xmlns="http://www.w3.org/2000/svg" x="170.667" y="119.467" width="110.933" height="17.067" fill="#000000" data-original="#000000" style="" class=""/>
<rect xmlns="http://www.w3.org/2000/svg" x="298.667" y="119.467" width="42.667" height="17.067" fill="#000000" data-original="#000000" style="" class=""/>
<path xmlns="http://www.w3.org/2000/svg" d="M469.333,0h-17.067c-4.71,0-8.533,3.823-8.533,8.533v59.733H8.533C3.823,68.267,0,72.09,0,76.8v358.4  c0,4.71,3.823,8.533,8.533,8.533h460.8c23.561,0,42.667-19.106,42.667-42.667v-358.4C512,19.106,492.894,0,469.333,0z   M469.333,426.667H17.067V85.333h426.667v281.6c0,4.71,3.823,8.533,8.533,8.533h17.067c14.14,0,25.6,11.46,25.6,25.6  S483.473,426.667,469.333,426.667z M494.933,366.933c-7.381-5.538-16.367-8.533-25.6-8.533H460.8V17.067h8.533  c14.14,0,25.6,11.46,25.6,25.6V366.933z" fill="#000000" data-original="#000000" style="" class=""/>
<path xmlns="http://www.w3.org/2000/svg" d="M418.133,273.067h-42.667v-25.6c0-4.71-3.823-8.533-8.533-8.533h-102.4v-17.067H307.2c4.71,0,8.533-3.823,8.533-8.533v-51.2  c0-4.71-3.823-8.533-8.533-8.533H204.8c-4.71,0-8.533,3.823-8.533,8.533v51.2c0,4.71,3.823,8.533,8.533,8.533h42.667v17.067h-102.4  c-4.71,0-8.533,3.823-8.533,8.533v25.6H93.867c-4.71,0-8.533,3.823-8.533,8.533v51.2c0,4.71,3.823,8.533,8.533,8.533h102.4  c4.71,0,8.533-3.823,8.533-8.533v-51.2c0-4.71-3.823-8.533-8.533-8.533H153.6V256h204.8v17.067h-42.667  c-4.71,0-8.533,3.823-8.533,8.533v51.2c0,4.71,3.823,8.533,8.533,8.533h102.4c4.71,0,8.533-3.823,8.533-8.533v-51.2  C426.667,276.89,422.844,273.067,418.133,273.067z M187.733,290.133v34.133H102.4v-34.133H187.733z M213.333,204.8v-34.133h85.333  V204.8H213.333z M409.6,324.267h-85.333v-34.133H409.6V324.267z" fill="#000000" data-original="#000000" style="" class=""/>
<rect xmlns="http://www.w3.org/2000/svg" x="85.333" y="358.4" width="34.133" height="17.067" fill="#000000" data-original="#000000" style="" class=""/>
<rect xmlns="http://www.w3.org/2000/svg" x="136.533" y="358.4" width="68.267" height="17.067" fill="#000000" data-original="#000000" style="" class=""/>
<path xmlns="http://www.w3.org/2000/svg" d="M426.667,469.333c0-4.71-3.823-8.533-8.533-8.533H221.867c-1.673,0.017-3.302,0.521-4.693,1.451l-25.6,17.067  c-3.908,2.628-4.949,7.927-2.321,11.844c0.614,0.922,1.408,1.707,2.321,2.321l25.6,17.067c1.391,0.93,3.021,1.434,4.693,1.451  h196.267c4.71,0,8.533-3.823,8.533-8.533V469.333z M375.467,494.933h-151.04l-12.8-8.533l12.8-8.533h151.04V494.933z M409.6,494.933  h-17.067v-17.067H409.6V494.933z" fill="#000000" data-original="#000000" style="" class=""/>
<rect xmlns="http://www.w3.org/2000/svg" x="307.2" y="358.4" width="68.267" height="17.067" fill="#000000" data-original="#000000" style="" class=""/>
<rect xmlns="http://www.w3.org/2000/svg" x="392.533" y="358.4" width="34.133" height="17.067" fill="#000000" data-original="#000000" style="" class=""/>
<g xmlns="http://www.w3.org/2000/svg">
</g>
<g xmlns="http://www.w3.org/2000/svg">
</g>
<g xmlns="http://www.w3.org/2000/svg">
</g>
<g xmlns="http://www.w3.org/2000/svg">
</g>
<g xmlns="http://www.w3.org/2000/svg">
</g>
<g xmlns="http://www.w3.org/2000/svg">
</g>
<g xmlns="http://www.w3.org/2000/svg">
</g>
<g xmlns="http://www.w3.org/2000/svg">
</g>
<g xmlns="http://www.w3.org/2000/svg">
</g>
<g xmlns="http://www.w3.org/2000/svg">
</g>
<g xmlns="http://www.w3.org/2000/svg">
</g>
<g xmlns="http://www.w3.org/2000/svg">
</g>
<g xmlns="http://www.w3.org/2000/svg">
</g>
<g xmlns="http://www.w3.org/2000/svg">
</g>
<g xmlns="http://www.w3.org/2000/svg">
</g>
</g></svg>
