<svg height="512" viewBox="0 0 256 256" width="512" xmlns="http://www.w3.org/2000/svg"><rect fill="#cecece" height="203.05" rx="5" width="162" x="30.944" y="33.495"/><path d="m40.944 231.545v-193.05a5 5 0 0 1 5-5h-10a5 5 0 0 0 -5 5v193.05a5 5 0 0 0 5 5h10a5 5 0 0 1 -5-5z" fill="#afafaf"/><path d="m182.944 231.545v-193.05a5 5 0 0 0 -5-5h10a5 5 0 0 1 5 5v193.05a5 5 0 0 1 -5 5h-10a5 5 0 0 0 5-5z" fill="#e2e2e2"/><path d="m97.944 133.085h50.419v16.195h-50.419z" fill="#63bce7"/><path d="m44.944 160.752h103.419v16.195h-103.419z" fill="#63bce7"/><path d="m44.944 188.419h103.419v16.195h-103.419z" fill="#63bce7"/><circle cx="192.944" cy="140.108" fill="#f46275" r="32.112"/><path d="m192.944 108a32.341 32.341 0 0 0 -5 .39 32.114 32.114 0 0 1 0 63.444 32.112 32.112 0 1 0 5-63.833z" fill="#f48875"/><path d="m201.784 227.705a8.84 8.84 0 0 1 -8.84 8.84 8.84 8.84 0 0 1 -8.84-8.84v-33.605a8.84 8.84 0 0 1 8.84-8.84 8.84 8.84 0 0 1 8.84 8.84z" fill="#9e9e9e"/><path d="m192.944 185.262a8.8 8.8 0 0 0 -5 1.553 8.828 8.828 0 0 1 3.84 7.287v33.6a8.828 8.828 0 0 1 -3.84 7.287 8.837 8.837 0 0 0 13.84-7.287v-33.602a8.84 8.84 0 0 0 -8.84-8.838z" fill="#cecece"/><circle cx="192.944" cy="140.108" fill="#f8af23" r="19.588"/><path d="m44.944 114.778h34.502v34.502h-34.502z" fill="#f46275"/><path d="m61.959 144.945a4.99 4.99 0 0 1 -3.812-1.762l-8.5-10a5 5 0 1 1 7.619-6.477l5.35 6.294 18.64-14.978a5 5 0 0 1 6.264 7.795l-22.432 18.025a4.98 4.98 0 0 1 -3.129 1.103z" fill="#63bce7"/><path d="m142.811 62.021c-.323.9-.69 1.771-1.09 2.63l8.087 8.087-15.9 15.9-8.087-8.087c-.86.4-1.737.766-2.63 1.09v11.442h-22.483v-11.441c-.894-.323-1.771-.69-2.63-1.09l-8.088 8.088-15.9-15.9 8.087-8.087c-.4-.86-.766-1.728-1.09-2.63h-11.442v-22.484h11.441c.323-.894.69-1.771 1.09-2.63l-8.087-8.087 15.9-15.9 8.087 8.1c.86-.4 1.737-.775 2.63-1.1v-11.437h22.482v11.432c.894.323 1.771.7 2.63 1.1l8.087-8.1 15.9 15.9-8.087 8.087c.4.86.766 1.737 1.09 2.63h11.433v22.487z" fill="#f8af23"/><path d="m92.175 64.651c-.4-.86-.766-1.728-1.09-2.63h-10c.323.9.69 1.771 1.09 2.63l-8.087 8.087 15.9 15.9 5-5-10.9-10.9z" fill="#f87023"/><path d="m92.175 36.908-8.087-8.087 10.9-10.9-5-5-15.9 15.9 8.087 8.087c-.4.86-.766 1.737-1.09 2.63h10c.324-.893.69-1.77 1.09-2.63z" fill="#f87023"/><path d="m69.645 39.539h10v22.482h-10z" fill="#f87023"/><circle cx="111.944" cy="50.781" fill="#f46275" r="14.317"/><g fill="#3f3679"><path d="m148.363 131.585h-50.419a1.5 1.5 0 0 0 -1.5 1.5v16.195a1.5 1.5 0 0 0 1.5 1.5h50.419a1.5 1.5 0 0 0 1.5-1.5v-16.195a1.5 1.5 0 0 0 -1.5-1.5zm-1.5 16.195h-47.419v-13.195h47.419z"/><path d="m148.363 159.252h-103.419a1.5 1.5 0 0 0 -1.5 1.5v16.2a1.5 1.5 0 0 0 1.5 1.5h103.419a1.5 1.5 0 0 0 1.5-1.5v-16.2a1.5 1.5 0 0 0 -1.5-1.5zm-1.5 16.2h-100.419v-13.2h100.419z"/><path d="m148.363 186.918h-103.419a1.5 1.5 0 0 0 -1.5 1.5v16.2a1.5 1.5 0 0 0 1.5 1.5h103.419a1.5 1.5 0 0 0 1.5-1.5v-16.2a1.5 1.5 0 0 0 -1.5-1.5zm-1.5 16.2h-100.419v-13.2h100.419z"/><path d="m171.855 140.107a21.088 21.088 0 1 0 21.089-21.088 21.112 21.112 0 0 0 -21.089 21.088zm39.177 0a18.088 18.088 0 1 1 -18.088-18.088 18.109 18.109 0 0 1 18.088 18.088z"/><path d="m44.944 150.78h34.5a1.5 1.5 0 0 0 1.5-1.5v-16.257l7.512-6.037a6.5 6.5 0 0 0 -7.512-10.577v-1.632a1.5 1.5 0 0 0 -1.5-1.5h-34.5a1.5 1.5 0 0 0 -1.5 1.5v34.5a1.5 1.5 0 0 0 1.5 1.503zm39.822-32.34a3.5 3.5 0 0 1 1.814 6.208l-22.432 18.025a3.582 3.582 0 0 1 -4.858-.462l-8.5-10a3.5 3.5 0 0 1 2.662-5.767q.144 0 .288.012a3.472 3.472 0 0 1 2.383 1.222l5.35 6.294a1.5 1.5 0 0 0 2.083.2l18.644-14.981a3.467 3.467 0 0 1 2.566-.751zm-38.322-2.162h31.5v2.479l-15.133 12.16-4.4-5.182a6.5 6.5 0 0 0 -9.905 8.419l8.5 10a6.5 6.5 0 0 0 9.024.857l11.919-9.578v12.347h-31.5z"/><path d="m27.323 246.018h-18a1.5 1.5 0 1 0 0 3h18a1.5 1.5 0 0 0 0-3z"/><path d="m246.68 246.018h-18a1.5 1.5 0 1 0 0 3h18a1.5 1.5 0 0 0 0-3z"/><path d="m218.479 246.018h-180.958a1.5 1.5 0 1 0 0 3h180.958a1.5 1.5 0 1 0 0-3z"/><path d="m246.68 238.045a1.5 1.5 0 0 0 0-3h-46.463a10.306 10.306 0 0 0 3.067-7.34v-33.605a10.347 10.347 0 0 0 -8.84-10.218v-10.2a33.607 33.607 0 0 0 0-67.147v-68.04a6.508 6.508 0 0 0 -6.5-6.5h-39.193l2.114-2.114a1.5 1.5 0 0 0 0-2.121l-15.9-15.9a1.5 1.5 0 0 0 -2.121 0l-7.359 7.358c-.269-.117-.535-.228-.8-.334v-10.402a1.5 1.5 0 0 0 -1.5-1.5h-22.485a1.5 1.5 0 0 0 -1.5 1.5v10.4q-.4.16-.8.334l-7.359-7.358a1.5 1.5 0 0 0 -2.121 0l-15.9 15.9a1.5 1.5 0 0 0 0 2.121l2.114 2.114h-39.19a6.508 6.508 0 0 0 -6.5 6.5v193.052a6.455 6.455 0 0 0 1.032 3.5h-21.156a1.5 1.5 0 1 0 0 3zm-46.4-43.943v33.6a7.34 7.34 0 1 1 -14.68 0v-33.602a7.34 7.34 0 1 1 14.68 0zm23.271-53.995a30.611 30.611 0 1 1 -30.607-30.607 30.646 30.646 0 0 1 30.612 30.607zm-133.568-125.065 7.03 7.03a1.5 1.5 0 0 0 1.7.3c.872-.407 1.691-.749 2.506-1.046a1.5 1.5 0 0 0 .987-1.409v-9.935h19.485v9.934a1.5 1.5 0 0 0 .987 1.41c.814.3 1.634.639 2.506 1.045a1.5 1.5 0 0 0 1.7-.3l7.03-7.03 13.769 13.779-7.029 7.03a1.5 1.5 0 0 0 -.3 1.694c.409.879.751 1.7 1.046 2.507a1.5 1.5 0 0 0 1.409.987h9.934v19.485h-9.933a1.5 1.5 0 0 0 -1.409.987c-.295.808-.637 1.628-1.046 2.508a1.5 1.5 0 0 0 .3 1.694l7.029 7.03-13.779 13.778-7.03-7.03a1.5 1.5 0 0 0 -1.7-.3c-.872.407-1.692.749-2.506 1.045a1.5 1.5 0 0 0 -.987 1.41v9.934h-19.482v-9.933a1.5 1.5 0 0 0 -.987-1.409c-.814-.3-1.634-.639-2.506-1.046a1.5 1.5 0 0 0 -1.7.3l-7.03 7.03-13.771-13.779 7.03-7.03a1.5 1.5 0 0 0 .3-1.7c-.407-.872-.749-1.692-1.045-2.506a1.5 1.5 0 0 0 -1.41-.987h-9.936v-19.48h9.934a1.5 1.5 0 0 0 1.409-.987c.3-.814.639-1.634 1.046-2.506a1.5 1.5 0 0 0 -.3-1.7l-7.03-7.03zm-57.539 216.5v-193.047a3.5 3.5 0 0 1 3.5-3.5h42.025a1.467 1.467 0 0 0 .153-.015l2.26 2.26q-.174.4-.334.8h-10.4a1.5 1.5 0 0 0 -1.5 1.5v22.483a1.5 1.5 0 0 0 1.5 1.5h10.4c.107.264.218.53.334.8l-7.358 7.358a1.5 1.5 0 0 0 0 2.121l15.9 15.9a1.5 1.5 0 0 0 2.121 0l7.355-7.359q.4.174.8.334v10.4a1.5 1.5 0 0 0 1.5 1.5h22.485a1.5 1.5 0 0 0 1.5-1.5v-10.4c.264-.107.53-.218.8-.334l7.359 7.358a1.544 1.544 0 0 0 2.121 0l15.9-15.9a1.5 1.5 0 0 0 0-2.121l-7.358-7.358c.117-.27.229-.536.335-.8h10.4a1.5 1.5 0 0 0 1.5-1.5v-22.483a1.5 1.5 0 0 0 -1.5-1.5h-10.4c-.106-.264-.218-.529-.335-.8l2.245-2.245h42.193a3.5 3.5 0 0 1 3.5 3.5v68.04a33.607 33.607 0 0 0 0 67.147v10.2a10.347 10.347 0 0 0 -8.845 10.219v33.6a10.306 10.306 0 0 0 3.067 7.34h-149.723a3.5 3.5 0 0 1 -3.5-3.495z"/><path d="m111.944 66.6a15.816 15.816 0 1 0 -15.816-15.819 15.834 15.834 0 0 0 15.816 15.819zm0-28.633a12.816 12.816 0 1 1 -12.816 12.814 12.831 12.831 0 0 1 12.816-12.816z"/></g></svg>