<svg id="Layer_1" enable-background="new 0 0 256 256" height="512" viewBox="0 0 256 256" width="512" xmlns="http://www.w3.org/2000/svg"><g><g><path d="m245.524 243.17c-4.108 4.108-10.768 4.108-14.876 0l-55.154-55.154 14.876-14.876 55.154 55.154c4.108 4.108 4.108 10.768 0 14.876z" fill="#3193f3"/><g><circle cx="163.737" cy="161.383" fill="#5fcdff" r="63.62"/><ellipse cx="163.737" cy="161.383" fill="#ffe2e2" rx="43.674" ry="43.673" transform="matrix(.383 -.924 .924 .383 -48.021 250.898)"/><path d="m199.24 186.806c-1.364 1.915-2.91 3.743-4.624 5.457-17.029 17.029-44.73 17.029-61.759 0s-17.029-44.73 0-61.759c1.714-1.714 3.542-3.259 5.457-4.624-12.238 17.049-10.692 40.987 4.624 56.303s39.252 16.86 56.302 4.623z" fill="#ffefee"/><path d="m187.308 174.992 18.434-10.643c2.283-1.318 2.283-4.614 0-5.932l-18.434-10.643c-14.586-8.421-32.557-8.421-47.143 0l-18.434 10.643c-2.283 1.318-2.283 4.614 0 5.932l18.434 10.643c14.586 8.421 32.557 8.421 47.143 0z" fill="#73d7f9"/><circle cx="163.737" cy="161.383" fill="#3193f3" r="19.91"/><path d="m181.922 169.487c-.961 2.171-2.332 4.2-4.106 5.974-7.775 7.775-20.383 7.775-28.158 0s-7.775-20.383 0-28.158c1.774-1.774 3.804-3.145 5.974-4.106-3.266 7.312-1.888 16.189 4.106 22.184s14.872 7.373 22.184 4.106z" fill="#35b1fc"/><path d="m213.48 201.046c-1.465 1.841-3.058 3.622-4.758 5.322-24.805 24.805-65.167 24.805-89.971 0s-24.805-65.167 0-89.971c1.7-1.7 3.481-3.293 5.322-4.758-19.932 24.946-18.346 61.544 4.758 84.649s59.703 24.69 84.649 4.758z" fill="#73d7f9"/></g><path d="m108.366 60.238c0-29.07-24.568-52.401-54.073-50.363-24.43 1.687-44.415 21.157-46.678 45.54-1.195 12.875 2.452 24.864 9.327 34.366 11.468 15.849 18.198 34.623 18.198 54.184v2.217h45.477v-1.767c0-19.264 5.756-38.293 17.438-53.612 6.469-8.481 10.311-19.072 10.311-30.565z" fill="#f9d335"/><circle cx="149.09" cy="35.607" fill="#ff4a73" r="12.255"/><circle cx="187.248" cy="67.778" fill="#ff4a73" r="12.255"/><path d="m80.621 146.181v33.11c0 12.56-10.18 22.74-22.74 22.74s-22.74-10.18-22.74-22.74v-33.11z" fill="#87828e"/><path d="m80.621 172.551v6.74c0 12.56-10.18 22.74-22.74 22.74s-22.74-10.18-22.74-22.74v-6.74z" fill="#796e84"/><path d="m31.941 89.781c11.47 15.85 18.2 34.62 18.2 54.18v2.22h-15v-2.22c0-19.56-6.73-38.33-18.2-54.18-6.87-9.5-10.52-21.49-9.33-34.37 2.27-24.38 22.25-43.85 46.68-45.54 3.78-.26 7.48-.1 11.05.43-22.6 3.39-40.58 22.06-42.73 45.11-1.19 12.88 2.46 24.87 9.33 34.37z" fill="#f9e27d"/><path d="m65.381 200.761c-.03.02-.06.03-.1.03-14.698 5.079-30.14-5.859-30.14-21.5v-33.11h15v33.11c0 13.589 12.196 21.47 15.24 21.47z" fill="#a4a4a5"/><path d="m65.381 200.761c-.03.02-.06.03-.1.03-14.698 5.079-30.14-5.859-30.14-21.5v-6.74h15v6.74c0 13.589 12.196 21.47 15.24 21.47z" fill="#87828e"/></g><g fill="#5f266d"><circle cx="163.737" cy="161.383" r="7.308"/><path d="m197.447 127.673c-30.041-30.039-81.415-8.405-81.429 33.709 0 25.823 20.918 47.654 47.719 47.654 42.114 0 63.84-51.234 33.71-81.363zm-12.039 23.623 17.472 10.087-17.472 10.087c1.433-3.067 2.239-6.484 2.239-10.087s-.806-7.02-2.239-10.087zm6.383-17.966c5.272 5.272 8.744 11.672 10.422 18.431l-12.905-7.45c-15.698-9.064-35.417-9.08-51.143 0l-12.905 7.45c7.389-29.751 44.722-40.24 66.531-18.431zm-12.144 28.053c0 8.619-6.958 15.938-16.088 15.901-8.69-.096-15.733-7.188-15.733-15.901 0-8.619 6.958-15.938 16.088-15.901 8.69.097 15.733 7.188 15.733 15.901zm-37.581-10.088c-1.434 3.067-2.24 6.484-2.24 10.088 0 3.603.806 7.02 2.239 10.087l-17.472-10.087zm49.725 38.141c-21.806 21.806-59.144 11.312-66.53-18.431l12.905 7.45c15.712 9.072 35.427 9.073 51.143 0l12.905-7.451c-1.679 6.76-5.151 13.16-10.423 18.432z"/><path d="m248.35 225.461-27.653-27.654c16.732-26.158 13.694-61.399-9.146-84.239-26.365-26.364-69.264-26.364-95.629 0-42.633 42.634-12.025 115.402 47.814 115.402 12.686 0 25.364-3.553 36.425-10.628l27.654 27.654c4.598 4.601 10.371 4.274 10.271 4.254 12.832-.004 19.426-15.63 10.264-24.789zm-126.771-21.921c-23.245-23.246-23.245-61.069 0-84.314 23.242-23.241 61.066-23.25 84.316 0 23.245 23.246 23.245 61.069 0 84.314-23.247 23.246-61.069 23.247-84.316 0zm116.505 38.711c-.106-.021-2.56.142-4.612-1.911l-26.759-26.759c3.434-2.831 6.376-5.771 9.222-9.222l26.758 26.759c4.09 4.089 1.18 11.131-4.609 11.133z"/><path d="m101.236 93.23c7.813-10.244 11.674-22.658 11.063-35.54l24.075-11.986c5.506 6.918 15.38 8.175 22.418 2.913l13.911 11.948c-5.396 10.835 2.57 23.468 14.545 23.468 11.365 0 19.29-11.447 15.144-22.117l36.498-25.965c1.801-1.281 2.222-3.778.941-5.578-1.282-1.801-3.78-2.22-5.578-.94l-36.498 25.965c-2.836-2.41-6.501-3.874-10.507-3.874-3.475 0-6.691 1.105-9.336 2.97l-14.076-12.09c.959-2.071 1.509-4.369 1.509-6.797 0-8.963-7.292-16.255-16.255-16.255-9.917 0-17.762 8.933-15.997 19.051l-21.853 10.88c-2.268-10.98-7.894-21.141-16.191-28.885-33.298-31.078-87.309-9.615-91.416 34.648-1.229 13.24 2.346 26.409 10.068 37.081 11.408 15.767 17.438 33.692 17.438 51.839v35.33c0 14.744 11.995 26.739 26.738 26.739s26.738-11.995 26.738-26.739c1.895-23.101-6.758-55.41 16.621-86.066zm86.012-33.706c4.552 0 8.255 3.703 8.255 8.254 0 4.552-3.703 8.255-8.255 8.255s-8.255-3.703-8.255-8.255c0-4.551 3.703-8.254 8.255-8.254zm-38.159-32.172c4.552 0 8.255 3.703 8.255 8.255s-3.703 8.255-8.255 8.255-8.255-3.703-8.255-8.255 3.704-8.255 8.255-8.255zm-72.472 151.944c0 10.333-8.406 18.739-18.738 18.739s-18.738-8.406-18.738-18.739v-2.744h37.477v2.744zm0-10.744h-37.477v-18.369h37.477zm.025-26.37h-37.52c-.381-19.229-6.909-38.12-18.94-54.746-6.585-9.102-9.634-20.342-8.584-31.652 3.498-37.694 49.536-56.098 77.991-29.539 17.082 15.943 20.03 42.798 5.285 62.132-11.349 14.884-17.784 33.913-18.232 53.805z"/><path d="m95.922 59.836c0-1.327-.061-2.653-.182-3.942-.205-2.2-2.149-3.82-4.354-3.611-2.199.206-3.816 2.155-3.61 4.354.097 1.043.146 2.12.146 3.199 0 .467-.009.941-.028 1.421-.089 2.207 1.629 4.069 3.836 4.157.056.002.109.003.164.003 2.135 0 3.907-1.687 3.994-3.839.024-.588.034-1.169.034-1.742z"/><path d="m90.626 40.073c-7.287-12.213-19.488-16.876-20.004-17.069-2.073-.773-4.375.28-5.146 2.349-.772 2.069.278 4.374 2.349 5.146.1.037 10.067 3.846 15.932 13.673.748 1.255 2.076 1.951 3.438 1.951.697 0 1.403-.182 2.046-.565 1.897-1.132 2.518-3.588 1.385-5.485z"/></g></g></svg>