<svg id="Layer_35" enable-background="new 0 0 64 64" height="512" viewBox="0 0 64 64" width="512" xmlns="http://www.w3.org/2000/svg"><path d="m15.135 26h-3.108c.521-9.462 8.383-17 17.973-17 9.925 0 18 8.075 18 18s-8.075 18-18 18v6l-1 .246v.754h8.123c10.883-3.106 18.877-13.133 18.877-25 0-14.336-11.664-26-26-26-14.001 0-25.453 11.125-25.981 25h-3.154l7.135 8.562z" fill="#f0bc5e"/><path d="m29 52.948v.052h.093z" fill="#f0bc5e"/><path d="m62.944 55-12.944-7.766v3.766h-19v-6.784l-2.794-.687c-.123-.333-.262-.665-.417-.995l.93-1.534h7.281c2.757 0 5-2.243 5-5v-18c0-2.757-2.243-5-5-5h-12c-2.757 0-5 2.243-5 5v13h2v-13c0-1.654 1.346-3 3-3h12c1.654 0 3 1.346 3 3v18c0 1.302-.839 2.402-2 2.816v-21.816h-14v18.281l-1.535.929c-.33-.154-.662-.293-.995-.416l-.686-2.794h-7.567l-.687 2.794c-.332.123-.664.262-.995.417l-2.466-1.493-5.352 5.352 1.493 2.466c-.154.331-.293.663-.417.995l-2.793.685v7.567l2.794.687c.123.333.262.665.416.995l-1.492 2.466 5.351 5.351 2.466-1.493c.331.155.663.293.994.417l.687 2.794h7.567l.687-2.794c.332-.123.664-.262.995-.417l2.466 1.493 5.352-5.352-1.493-2.466c.072-.154.129-.31.195-.465h24.015v-2.234l7.056 4.235-7.056 4.234v-2.234h-14v2h12v3.766zm-37.944-20h10v4h-6.786l-3.214-3.214zm10-2h-10v-6h10zm0-14v6h-10v-6zm-11.375 39.759-2.073-1.255-.498.258c-.574.297-1.155.541-1.727.722l-.535.17-.576 2.346h-4.433l-.576-2.345-.535-.17c-.572-.182-1.153-.424-1.728-.722l-.498-.258-2.071 1.255-3.135-3.135 1.255-2.073-.258-.498c-.297-.572-.54-1.153-.722-1.727l-.17-.535-2.345-.576v-4.433l2.345-.576.17-.535c.182-.572.425-1.153.722-1.727l.258-.498-1.255-2.073 3.134-3.134 2.073 1.255.498-.258c.574-.297 1.155-.541 1.727-.722l.535-.17.577-2.345h4.433l.576 2.345.535.17c.574.182 1.155.425 1.727.722l.498.258 2.073-1.255 3.134 3.134-1.255 2.073.259.499c.296.571.539 1.152.722 1.727l.17.535 2.344.576v4.433l-2.345.576-.17.535c-.183.575-.425 1.155-.722 1.727l-.259.499 1.255 2.073z"/><path d="m16 39c-4.962 0-9 4.038-9 9s4.038 9 9 9 9-4.038 9-9-4.038-9-9-9zm0 16c-3.86 0-7-3.14-7-7s3.14-7 7-7 7 3.14 7 7-3.14 7-7 7z"/><path d="m16 43c-2.757 0-5 2.243-5 5s2.243 5 5 5 5-2.243 5-5-2.243-5-5-5zm0 8c-1.654 0-3-1.346-3-3s1.346-3 3-3 3 1.346 3 3-1.346 3-3 3z"/><path d="m34 57h2v2h-2z"/><path d="m30 57h2v2h-2z"/><path d="m27 21h2v2h-2z"/><path d="m31 21h2v2h-2z"/><path d="m31 29h2v2h-2z"/><path d="m27 29h2v2h-2z"/></svg>