<?xml version="1.0"?>
<svg xmlns="http://www.w3.org/2000/svg" xmlns:xlink="http://www.w3.org/1999/xlink" xmlns:svgjs="http://svgjs.com/svgjs" version="1.1" width="512" height="512" x="0" y="0" viewBox="0 0 496 496" style="enable-background:new 0 0 512 512" xml:space="preserve" class=""><g><g xmlns="http://www.w3.org/2000/svg" fill="#f0bc5e"><path d="m64 336c-17.648438 0-32-14.351562-32-32s14.351562-32 32-32 32 14.351562 32 32-14.351562 32-32 32zm0 0" fill="#fe9603" data-original="#f0bc5e" style=""/><path d="m168 312c-17.648438 0-32-14.351562-32-32s14.351562-32 32-32 32 14.351562 32 32-14.351562 32-32 32zm0 0" fill="#fe9603" data-original="#f0bc5e" style=""/><path d="m352 336c-17.648438 0-32-14.351562-32-32s14.351562-32 32-32 32 14.351562 32 32-14.351562 32-32 32zm0 0" fill="#fe9603" data-original="#f0bc5e" style=""/><path d="m414.414062 17.320312-46.414062 38.679688v40l32 24 48-16 15.953125-47.847656c-12.722656-16.960938-29.730469-30.511719-49.539063-38.832032zm0 0" fill="#fe9603" data-original="#f0bc5e" style=""/><path d="m320 192 24-32-8-40-40-16-48 24c0 23.558594 6.886719 45.464844 18.617188 64zm0 0" fill="#fe9603" data-original="#f0bc5e" style=""/><path d="m344 160-24 32 14.632812 51.199219c10.597657 3.066406 21.773438 4.800781 33.367188 4.800781s22.769531-1.734375 33.367188-4.800781l14.632812-51.199219-24-32zm0 0" fill="#fe9603" data-original="#f0bc5e" style=""/><path d="m368 56-46.414062-38.679688c-19.800782 8.3125-36.800782 21.855469-49.523438 38.808594l23.9375 47.871094 40 16 32-24zm0 0" fill="#fe9603" data-original="#f0bc5e" style=""/><path d="m488 128-40-24-48 16-8 40 24 32h53.382812c11.730469-18.535156 18.617188-40.441406 18.617188-64zm0 0" fill="#fe9603" data-original="#f0bc5e" style=""/></g><path xmlns="http://www.w3.org/2000/svg" d="m88 192v-41.902344l25.855469 31.023438 12.289062-10.242188-46.144531-55.375-46.144531 55.375 12.289062 10.242188 25.855469-31.023438v41.902344c0 22.054688 17.945312 40 40 40h112v-16h-112c-13.230469 0-24-10.769531-24-24zm0 0" fill="#000000" data-original="#000000" style="" class=""/><path xmlns="http://www.w3.org/2000/svg" d="m159.023438 172.289062 17.664062-17.664062 17.65625 17.664062 11.3125-11.3125-17.65625-17.664062 17.65625-17.65625-11.3125-11.3125-17.65625 17.65625-17.664062-17.65625-11.3125 11.3125 17.664062 17.65625-17.664062 17.664062zm0 0" fill="#000000" data-original="#000000" style="" class=""/><path xmlns="http://www.w3.org/2000/svg" d="m280.976562 243.710938-17.664062 17.664062-17.65625-17.664062-11.3125 11.3125 17.65625 17.664062-17.65625 17.65625 11.3125 11.3125 17.65625-17.65625 17.664062 17.65625 11.3125-11.3125-17.664062-17.65625 17.664062-17.664062zm0 0" fill="#000000" data-original="#000000" style="" class=""/><path xmlns="http://www.w3.org/2000/svg" d="m496 128c0-70.574219-57.425781-128-128-128-53.601562 0-99.542969 33.152344-118.574219 80h-249.425781v288h108.648438l-35.390626 99.105469c-.832031 2.34375-1.257812 4.78125-1.257812 7.253906 0 11.929687 9.703125 21.640625 21.640625 21.640625h8.910156c8.976563 0 17.113281-5.640625 20.265625-14.039062l42.726563-113.960938h18.457031v106.359375c0 11.929687 9.703125 21.640625 21.640625 21.640625h4.726563c11.929687 0 21.632812-9.710938 21.632812-21.640625v-106.359375h18.457031l42.734375 113.953125c3.144532 8.40625 11.289063 14.046875 20.257813 14.046875h8.910156c11.9375 0 21.640625-9.710938 21.640625-21.640625 0-2.472656-.425781-4.910156-1.257812-7.269531l-35.390626-99.089844h108.648438v-121.425781c46.847656-19.03125 80-64.972657 80-118.574219zm-128 112c-9.304688 0-18.296875-1.265625-26.945312-3.414062l-12.269532-42.96875 19.214844-25.617188h40l19.214844 25.625-12.269532 42.96875c-8.648437 2.140625-17.640624 3.40625-26.945312 3.40625zm-71.640625-127.238281 32.648437 13.054687 6.449219 32.238282-19.457031 25.945312h-44.847656c-8.816406-15.183594-14.113282-32.585938-14.914063-51.175781zm-39.480469 1.855469c1.839844-15.351563 6.800782-29.722657 14.226563-42.527344l14.167969 28.335937zm111.121094-8.617188 23.167969 17.375-5.726563 28.625h-34.882812l-5.726563-28.625zm-54.03125 94 8.664062 30.304688c-15.640624-6.960938-29.402343-17.367188-40.296874-30.304688zm106.03125-16-19.457031-25.9375 6.386719-31.933594 40.101562-13.367187 32.738281 19.636719c-.738281 18.753906-6.050781 36.304687-14.929687 51.609374h-44.839844zm46.304688-109.609375c6.464843 11.808594 10.757812 24.9375 12.605468 38.824219l-21.285156-12.773438zm-11.28125-16.75-13.34375 40.039063-40.230469 13.410156-25.449219-19.089844v-32.320312l39.574219-32.925782c15.371093 7.253906 28.859375 17.8125 39.449219 30.886719zm-56.6875-37.351563-29.976563 24.933594-30.535156-24.976562c9.617187-2.695313 19.710937-4.246094 30.175781-4.246094 10.527344 0 20.671875 1.558594 30.335938 4.289062zm-77.855469 6.4375 39.519531 32.328126v32.945312l-25.199219 18.902344-33.007812-13.199219-20.34375-40.6875c10.527343-12.816406 23.878906-23.144531 39.03125-30.289063zm-212.648438 449.617188c-.824219 2.183594-2.945312 3.65625-5.28125 3.65625h-8.910156c-3.113281 0-5.640625-2.527344-5.640625-5.640625 0-.648437.113281-1.289063.328125-1.894531l37.3125-104.464844h22.816406zm108.167969-1.984375c0 3.113281-2.527344 5.640625-5.640625 5.640625h-4.726563c-3.105468 0-5.632812-2.527344-5.632812-5.640625v-106.359375h16zm111.664062-1.910156c.222657.621093.335938 1.261719.335938 1.910156 0 3.113281-2.527344 5.640625-5.640625 5.640625h-8.910156c-2.335938 0-4.457031-1.472656-5.28125-3.664062l-40.625-108.335938h22.816406zm72.335938-120.449219h-384v-256h228.214844c-2.65625 10.246094-4.214844 20.9375-4.214844 32 0 70.574219 57.425781 128 128 128 11.0625 0 21.753906-1.558594 32-4.214844zm13.375-121.695312 8.65625-30.304688h31.632812c-10.886718 12.9375-24.648437 23.34375-40.289062 30.304688zm0 0" fill="#000000" data-original="#000000" style="" class=""/></g></svg>
