<svg height="496pt" viewBox="0 0 496 496" width="496pt" xmlns="http://www.w3.org/2000/svg"><path d="m116.535156 56.816406-9.078125-13.167968c41.4375-28.558594 90.039063-43.648438 140.542969-43.648438 37.9375 0 74.351562 8.34375 108.230469 24.808594l-6.992188 14.390625c-31.6875-15.390625-65.742187-23.199219-101.238281-23.199219-47.246094 0-92.703125 14.113281-131.464844 40.816406zm0 0"/><path d="m496 107.894531v-39.789062l-17.136719-3.425781c-1.167969-3.535157-2.589843-6.984376-4.261719-10.296876l9.695313-14.535156-28.136719-28.144531-14.542968 9.695313c-3.320313-1.679688-6.761719-3.101563-10.296876-4.261719l-3.425781-17.136719h-39.796875l-3.425781 17.136719c-3.535156 1.167969-6.976563 2.582031-10.296875 4.261719l-14.542969-9.695313-28.128906 28.136719 9.695313 14.535156c-1.671876 3.3125-3.101563 6.761719-4.261719 10.296875l-17.136719 3.433594v39.796875l17.136719 3.425781c1.167969 3.535156 2.589843 6.984375 4.261719 10.296875l-9.695313 14.535156 23.503906 23.503906 4.824219.039063c.160156-17.535156 14.402344-31.703125 31.96875-31.703125 17.671875 0 32 14.328125 32 32v.273438l2.390625.023437c5.289063-1.335937 10.394531-3.25 15.226563-5.695313l14.535156 9.695313 28.144531-28.144531-9.695313-14.535156c1.671876-3.3125 3.101563-6.761719 4.261719-10.296876zm-88 12.105469c-17.671875 0-32-14.328125-32-32s14.328125-32 32-32 32 14.328125 32 32-14.328125 32-32 32zm0 0" fill="#f0bc5e"/><path d="m408 128c-22.054688 0-40-17.945312-40-40s17.945312-40 40-40 40 17.945312 40 40-17.945312 40-40 40zm0-64c-13.230469 0-24 10.769531-24 24s10.769531 24 24 24 24-10.769531 24-24-10.769531-24-24-24zm0 0"/><g fill="#f0bc5e"><path d="m0 0h48v168h-48zm0 0"/><path d="m144 72h48v96h-48zm0 0"/><path d="m104 128c5.855469 0 11.28125 1.6875 16 4.441406v-108.441406h-48v136c0-17.671875 14.328125-32 32-32zm0 0"/></g><path d="m462.046875 158.40625c11.90625 28.335938 17.953125 58.417969 17.953125 89.59375 0 20.6875-2.800781 40.921875-8 60.320312v-50.214843c0-14.21875-9.542969-26.867188-23.207031-30.769531l-32.792969-9.367188v-10.167969c9.65625-7.3125 16-18.785156 16-31.792969v-16c0-22.054687-17.945312-40-40-40s-40 17.945313-40 40v16c0 13.015626 6.34375 24.488282 16 31.792969v10.167969l-32.792969 9.367188c-6.0625 1.726562-11.238281 5.25-15.207031 9.800781-3.96875-4.550781-9.144531-8.074219-15.207031-9.800781l-32.792969-9.367188v-10.167969c9.65625-7.3125 16-18.785156 16-31.792969v-16c0-22.054687-17.945312-40-40-40s-40 17.945313-40 40h-64c0-22.054687-17.945312-40-40-40s-40 17.945313-40 40h-64v16h10.847656c-7.054687 23.265626-10.847656 47.398438-10.847656 71.992188 0 90.558594 48.960938 173.167969 128 216.945312v15.054688c0 8.824219 7.175781 16 16 16h208c8.824219 0 16-7.175781 16-16v-15.054688c79.039062-43.777343 128-126.386718 128-216.945312 0-35.503906-7.40625-69.671875-21.847656-101.695312zm-94.046875 1.59375c0-13.230469 10.769531-24 24-24s24 10.769531 24 24v16c0 13.230469-10.769531 24-24 24s-24-10.769531-24-24zm32 55.191406v8.710938c-.097656 3.699218-1.558594 8.097656-8 8.097656s-7.902344-4.398438-8-8.097656v-8.710938c2.585938.527344 5.265625.808594 8 .808594s5.414062-.28125 8-.808594zm-99.601562 27.527344c6.832031 1.953125 11.601562 8.28125 11.601562 15.386719v77.894531h-8v-16c0-5.894531-3.238281-11-8-13.777344v-42.222656h-16v40h-64v-40h-16v42.222656c-4.761719 2.777344-8 7.882813-8 13.777344v16h-8v-77.894531c0-7.105469 4.769531-13.433594 11.609375-15.386719l30.574219-8.734375c3.097656 7.3125 9.792968 14.015625 21.816406 14.015625s18.71875-6.703125 21.824219-14.015625zm-12.398438 77.28125v16h-80v-16zm-48-96.097656v-8.710938c2.585938.527344 5.265625.808594 8 .808594s5.414062-.28125 8-.808594v8.710938c-.097656 3.699218-1.558594 8.097656-8 8.097656s-7.902344-4.398438-8-8.097656zm-16-63.902344c0-13.230469 10.769531-24 24-24s24 10.769531 24 24v16c0 13.230469-10.769531 24-24 24s-24-10.769531-24-24zm-80 16h64c0 13.015625 6.34375 24.488281 16 31.792969v10.167969l-32.792969 9.367187c-6.0625 1.726563-11.238281 5.246094-15.207031 9.800781-3.96875-4.554687-9.144531-8.074218-15.207031-9.800781l-32.792969-9.359375v-10.167969c9.65625-7.3125 16-18.785156 16-31.800781zm-64-16c0-13.230469 10.769531-24 24-24s24 10.769531 24 24v16c0 13.230469-10.769531 24-24 24s-24-10.769531-24-24zm32 55.191406v8.710938c-.097656 3.699218-1.558594 8.097656-8 8.097656s-7.902344-4.398438-8-8.097656v-8.710938c2.585938.527344 5.265625.808594 8 .808594s5.414062-.28125 8-.808594zm-88 42.914063v50.214843c-5.199219-19.398437-8-39.632812-8-60.320312 0-24.65625 4-48.816406 11.566406-72h36.433594c0 13.015625 6.34375 24.488281 16 31.792969v10.167969l-32.792969 9.367187c-13.664062 3.902344-23.207031 16.558594-23.207031 30.777344zm72 165.085937c-8.625-7.480468-16.632812-15.542968-24-24.121094v-63.070312h24zm40-84.96875c-4.761719 2.777344-8 7.882813-8 13.777344v94.519531c-5.496094-3.320312-10.847656-6.808593-16-10.527343v-99.992188h24zm0-74.222656v56h-64v-56h-16v114.230469c-5.960938-8.789063-11.296875-17.984375-16-27.511719v-92.613281c0-7.105469 4.769531-13.433594 11.609375-15.386719l30.574219-8.734375c3.097656 7.3125 9.792968 14.015625 21.816406 14.015625s18.71875-6.703125 21.824219-14.015625l30.574219 8.734375c6.832031 1.953125 11.601562 8.28125 11.601562 15.386719v77.894531h-16v-72zm8 216v-60.449219c4.726562 2.753907 10.144531 4.449219 16 4.449219h64v-16h-64c-8.824219 0-16-7.175781-16-16v-40h208v40c0 8.824219-7.175781 16-16 16h-64v16h64c5.855469 0 11.28125-1.695312 16.007812-4.457031v60.457031zm240-44.007812c-5.152344 3.71875-10.503906 7.207031-16 10.527343v-94.519531c0-5.894531-3.238281-11-8-13.777344v-2.222656h24zm40-36.921876c-7.367188 8.578126-15.375 16.640626-24 24.121094v-87.191406h24zm32-48.351562c-4.703125 9.527344-10.039062 18.722656-16 27.511719v-114.230469h-16v56h-64v-56h-16v72h-16v-77.894531c0-7.105469 4.769531-13.433594 11.609375-15.386719l30.574219-8.734375c3.097656 7.3125 9.792968 14.015625 21.816406 14.015625s18.71875-6.703125 21.824219-14.015625l30.574219 8.734375c6.832031 1.953125 11.601562 8.28125 11.601562 15.386719zm0 0"/><path d="m264 440h-32c-8.839844 0-16-7.160156-16-16v-32h64v32c0 8.839844-7.160156 16-16 16zm0 0" fill="#f0bc5e"/></svg>