<svg id="Layer_1" enable-background="new 0 0 256 256" height="512" viewBox="0 0 256 256" width="512" xmlns="http://www.w3.org/2000/svg"><g><g><g><g><g><g><g><path d="m68.794 55.641h118.411v144.719h-118.411z" fill="#efefef"/></g><g><circle cx="127.999" cy="128" fill="#f0c020" r="39.921"/></g><g><circle cx="127.999" cy="128" fill="#f0c020" r="39.921"/></g><g><path d="m177.071 191.509h-97.084c-1.381 0-2.5-1.119-2.5-2.5s1.119-2.5 2.5-2.5h94.584v-120.049c0-1.381 1.119-2.5 2.5-2.5s2.5 1.119 2.5 2.5v122.548c0 1.382-1.119 2.501-2.5 2.501z" fill="#fff"/></g><g><path d="m187.204 41.659v13.982h-118.41v-13.982c0-6.812 5.523-12.334 12.334-12.334h93.742c6.803 0 12.334 5.522 12.334 12.334z" fill="#afafaf"/></g><g><path d="m68.794 200.359h118.411v13.982c0 6.812-5.531 12.334-12.334 12.334h-93.743c-6.812 0-12.334-5.523-12.334-12.334z" fill="#afafaf"/></g></g></g></g></g><g><path d="m130.539 162.03c-1.29 0-2.384-.992-2.489-2.3-.11-1.376.916-2.582 2.292-2.692 6.883-.551 13.366-3.548 18.255-8.438 5.503-5.503 8.533-12.819 8.533-20.6 0-7.78-3.03-15.096-8.533-20.599-.976-.976-.976-2.559 0-3.536.976-.976 2.559-.976 3.536 0 6.447 6.447 9.997 15.019 9.997 24.134 0 9.117-3.55 17.688-9.997 24.135-5.729 5.729-13.326 9.241-21.392 9.887-.067.006-.135.009-.202.009zm-9.924-.767c-.192 0-.388-.022-.583-.069-6.113-1.461-11.704-4.594-16.168-9.059-.976-.976-.976-2.559 0-3.536.976-.976 2.559-.976 3.536 0 3.811 3.812 8.581 6.485 13.794 7.731 1.343.321 2.171 1.67 1.851 3.013-.274 1.148-1.299 1.92-2.43 1.92z" fill="#f9e5af"/></g></g><g><circle cx="235.572" cy="128" fill="#72c1e8" r="14.761"/></g><g><circle cx="235.572" cy="23.057" fill="#72c1e8" r="14.761"/></g><g><circle cx="235.572" cy="232.943" fill="#72c1e8" r="14.761"/></g><g><circle cx="20.428" cy="128" fill="#72c1e8" r="14.761"/></g><g><circle cx="20.428" cy="232.943" fill="#72c1e8" r="14.761"/></g><g><circle cx="20.428" cy="23.057" fill="#72c1e8" r="14.761"/></g><g><path d="m104.786 128c0 12.82 10.393 23.212 23.212 23.212 12.82 0 23.212-10.393 23.212-23.212z" fill="#fc5d3d"/></g><g><path d="m137.77 211.02h-19.54c-1.38 0-2.5 1.12-2.5 2.5 0 1.37 1.12 2.5 2.5 2.5h19.54c1.38 0 2.5-1.13 2.5-2.5 0-1.38-1.12-2.5-2.5-2.5z"/><circle cx="68.79" cy="148.54" r="2.5"/><path d="m143.79 39.98h-1.01c-1.38 0-2.5 1.12-2.5 2.5s1.12 2.5 2.5 2.5h1.01c1.38 0 2.5-1.12 2.5-2.5s-1.12-2.5-2.5-2.5z"/><path d="m131.95 39.98h-19.74c-1.38 0-2.5 1.12-2.5 2.5s1.12 2.5 2.5 2.5h19.74c1.38 0 2.5-1.12 2.5-2.5s-1.12-2.5-2.5-2.5z"/><path d="m100.47 95.72c-1.04.89-1.17 2.48-.28 3.53.91 1.043 2.473 1.163 3.52.28 0 0 .01 0 .01-.01 1.05-.89 1.17-2.47.28-3.52-.86-1.01-2.52-1.14-3.53-.28z"/><path d="m96.82 102.95c-1.09-.77-2.72-.49-3.49.59-5.07 7.18-7.75 15.64-7.75 24.46 0 23.37 18.878 42.42 42.42 42.42 23.458 0 42.42-18.974 42.42-42.42 0-23.458-18.973-42.42-42.42-42.42-6.56 0-12.84 1.45-18.68 4.32-1.231.615-1.749 2.089-1.14 3.35.59 1.2 2.13 1.74 3.35 1.14 5.15-2.53 10.69-3.81 16.47-3.81 20.653 0 37.42 16.705 37.42 37.42 0 20.692-16.748 37.42-37.42 37.42-20.652 0-37.42-16.704-37.42-37.42 0-7.78 2.36-15.24 6.84-21.57.79-1.12.52-2.69-.6-3.48z"/><path d="m149.32 85.99c1.388.349 2.704-.516 3.03-1.81l1.56-6.24c.34-1.34-.48-2.7-1.81-3.03s-2.71.5-3.04 1.81l-1.56 6.24c-.323 1.311.44 2.691 1.82 3.03z"/><path d="m160.13 92.03 5.88-5.27c1.03-.92 1.12-2.5.2-3.53-.89-.98-2.55-1.08-3.54-.19l-5.87 5.27c-1.059.952-1.098 2.509-.2 3.53.948 1.048 2.537 1.096 3.53.19z"/><path d="m218.512 130.5c1.218 8.336 8.398 14.76 17.057 14.76 10.758 0 18.978-9.803 16.96-20.49-.25-1.34-1.58-2.25-2.92-1.99-1.394.254-2.25 1.599-1.99 2.92 1.419 7.595-4.424 14.549-12.05 14.56-6.75-.01-12.25-5.51-12.26-12.26.009-6.396 5.044-12.26 12.6-12.26 1.4.08 2.53-1.04 2.57-2.43.042-1.383-1.047-2.529-2.43-2.57-9.74 0-16.384 6.871-17.537 14.76h-28.812v-45.67h45.87c1.377 0 2.5-1.103 2.5-2.5v-37.212c8.336-1.218 14.76-8.398 14.76-17.057 0-9.52-7.74-17.26-17.26-17.26-9.51 0-17.26 7.74-17.26 17.26 0 8.659 6.432 15.838 14.76 17.057v34.712h-43.37v-33.17c0-8.18-6.66-14.83-14.83-14.84h-93.74c-8.18.01-14.83 6.66-14.84 14.84v33.17h-43.36v-34.712c8.336-1.218 14.76-8.398 14.76-17.057 0-9.52-7.74-17.26-17.26-17.27-9.52.009-17.26 7.749-17.26 17.269 0 8.659 6.424 15.839 14.76 17.057v37.213c0 1.374 1.106 2.5 2.5 2.5h45.86v45.67h-28.802c-1.217-8.336-8.389-14.76-17.058-14.76-9.52 0-17.26 7.74-17.26 17.26s7.74 17.26 17.26 17.26c8.669 0 15.841-6.424 17.058-14.76h28.802v8.04c0 1.38 1.13 2.5 2.5 2.5 1.38 0 2.5-1.12 2.5-2.5 0-9.835 0-70.548 0-80.4h113.41v139.72h-113.41c0-4.586 0-34.418 0-39.32 0-1.38-1.12-2.5-2.5-2.5-1.37 0-2.5 1.12-2.5 2.5v17.63h-45.86c-1.414 0-2.5 1.151-2.5 2.5v37.212c-8.336 1.218-14.76 8.398-14.76 17.058 0 9.52 7.74 17.26 17.26 17.26s17.26-7.74 17.26-17.26c0-8.66-6.425-15.84-14.76-17.058v-34.712h43.36v33.17c.01 8.18 6.66 14.83 14.84 14.83h93.74c8.17 0 14.83-6.65 14.83-14.83v-33.17h43.37v34.712c-8.328 1.219-14.76 8.398-14.76 17.058 0 9.52 7.75 17.26 17.26 17.26 9.52 0 17.26-7.74 17.26-17.26 0-8.66-6.424-15.84-14.76-17.058v-37.212c0-1.355-1.087-2.5-2.5-2.5h-45.87v-45.67zm4.798-107.44c.01-6.75 5.51-12.25 12.26-12.26 6.75.01 12.25 5.51 12.26 12.26-.01 6.75-5.51 12.25-12.26 12.26-6.75-.01-12.25-5.51-12.26-12.26zm-215.14 0c.01-6.75 5.51-12.25 12.26-12.26 6.75.01 12.25 5.51 12.26 12.26-.01 6.74-5.51 12.25-12.26 12.26-6.75-.01-12.25-5.52-12.26-12.26zm12.26 117.2c-6.75-.01-12.25-5.51-12.26-12.26.01-6.75 5.51-12.25 12.26-12.26 6.75.01 12.25 5.51 12.26 12.26-.01 6.75-5.51 12.25-12.26 12.26zm12.26 92.68c-.01 6.75-5.51 12.25-12.26 12.26-6.75-.01-12.25-5.51-12.26-12.26.01-6.74 5.51-12.25 12.26-12.26 6.75.01 12.25 5.52 12.26 12.26zm215.14 0c-.01 6.75-5.51 12.25-12.26 12.27-6.75-.02-12.25-5.52-12.26-12.27.01-6.74 5.51-12.25 12.26-12.26 6.75.01 12.25 5.52 12.26 12.26zm-176.54-179.8v-11.48c.01-5.41 4.43-9.83 9.84-9.84h93.74c5.41.01 9.82 4.43 9.83 9.84v11.48zm103.58 171.04h-93.74c-5.41-.01-9.83-4.43-9.84-9.84v-11.48h113.41v11.48c-.01 5.41-4.42 9.83-9.83 9.84z"/><path d="m116.13 117.75v-4.51c0-1.38-1.12-2.5-2.5-2.5-1.37 0-2.5 1.12-2.5 2.5v4.51c0 1.37 1.13 2.5 2.5 2.5 1.38 0 2.5-1.13 2.5-2.5z"/><path d="m144.87 117.75v-4.51c0-1.38-1.13-2.5-2.5-2.5-1.38 0-2.5 1.12-2.5 2.5v4.51c0 1.38 1.12 2.5 2.5 2.5 1.37 0 2.5-1.12 2.5-2.5z"/><path d="m102.29 128c0 14.183 11.462 25.71 25.71 25.71 14.207 0 25.71-11.493 25.71-25.71 0-1.415-1.153-2.5-2.5-2.5h-46.42c-1.352 0-2.5 1.084-2.5 2.5zm46.27 2.5c-1.26 10.37-10.09 18.19-20.56 18.21-10.47-.02-19.3-7.84-20.56-18.21z"/><path d="m243.24 115.14c-.903 1.026-.773 2.633.28 3.52 1.018.883 2.6.793 3.52-.28.89-1.05.77-2.63-.28-3.53-1.01-.86-2.67-.72-3.52.29z"/></g></g></svg>