<svg enable-background="new 0 0 256 256" height="512" viewBox="0 0 256 256" width="512" xmlns="http://www.w3.org/2000/svg"><path d="m124.714 192.691c0-33.583 27.225-60.808 60.808-60.808 6.66 0 13.063 1.086 19.06 3.065 1.453-7.69 2.202-15.607 2.202-23.691v-58.345c0-3.329-2.536-6.109-5.85-6.414-33.392-3.078-64.677-18.012-88.093-42.052-2.53-2.596-6.701-2.593-9.228 0-23.417 24.04-54.702 38.974-88.094 42.052-3.314.305-5.85 3.085-5.85 6.414v58.345c0 43.834 21.871 82.793 60.005 106.89l32.699 20.664c3.559 2.244 8.157 2.245 11.709-.003l20.485-12.945c-6.223-9.542-9.853-20.93-9.853-33.172z" fill="#f9d87a"/><path d="m124.714 192.691c0-33.583 27.225-60.808 60.808-60.808 2.179 0 4.329.12 6.448.343 1.272-6.811 1.931-13.818 1.931-20.969v-52.583c-32.099-4.207-62.122-18.47-85.675-40.697-23.553 22.227-53.576 36.49-85.675 40.697v52.583c0 39.322 19.684 74.313 54.005 95.999l31.67 20.013 20.467-12.933c-2.563-6.727-3.979-14.019-3.979-21.645z" fill="#facb35"/><path d="m151.799 90.507c-2.841-2.841-7.466-2.84-10.307.001l-40.649 40.65-19.204-19.205c-1.374-1.373-3.204-2.129-5.153-2.129s-3.78.757-5.154 2.13c-1.376 1.376-2.134 3.205-2.134 5.151 0 1.947.758 3.777 2.134 5.153l24.357 24.357c1.376 1.376 3.207 2.134 5.153 2.134 1.947 0 3.778-.758 5.154-2.135l45.803-45.802c2.841-2.839 2.841-7.463 0-10.305z" fill="#edf4fc"/><circle cx="185.522" cy="192.692" fill="#fc3850" r="60.808"/><circle cx="185.522" cy="193.332" fill="#edf4fc" r="48.647"/><path d="m185.522 256c-34.909 0-63.309-28.4-63.309-63.309s28.4-63.309 63.309-63.309c34.908 0 63.308 28.4 63.308 63.309s-28.399 63.309-63.308 63.309zm0-121.617c-32.151 0-58.309 26.157-58.309 58.309s26.158 58.308 58.309 58.308 58.308-26.157 58.308-58.309-26.156-58.308-58.308-58.308z"/><path d="m185.522 244.479c-28.203 0-51.147-22.944-51.147-51.146 0-28.203 22.944-51.147 51.147-51.147 28.202 0 51.146 22.944 51.146 51.147.001 28.201-22.943 51.146-51.146 51.146zm0-97.294c-25.445 0-46.147 20.702-46.147 46.147s20.702 46.146 46.147 46.146 46.146-20.701 46.146-46.146-20.7-46.147-46.146-46.147z"/><path d="m156.382 166.052c-.64 0-1.279-.244-1.768-.732l-4.619-4.618c-.977-.976-.977-2.559 0-3.535.977-.977 2.559-.977 3.536 0l4.619 4.618c.977.976.977 2.559 0 3.535-.488.488-1.128.732-1.768.732z"/><path d="m219.447 229.116c-.64 0-1.28-.244-1.768-.732l-3.505-3.505c-.977-.977-.977-2.559 0-3.535.976-.977 2.56-.977 3.535 0l3.505 3.505c.977.977.977 2.559 0 3.535-.487.488-1.128.732-1.767.732z"/><path d="m144.047 195.832h-6.532c-1.381 0-2.5-1.119-2.5-2.5s1.119-2.5 2.5-2.5h6.532c1.381 0 2.5 1.119 2.5 2.5s-1.119 2.5-2.5 2.5z"/><path d="m233.529 195.832h-5.251c-1.381 0-2.5-1.119-2.5-2.5s1.119-2.5 2.5-2.5h5.251c1.381 0 2.5 1.119 2.5 2.5s-1.119 2.5-2.5 2.5z"/><path d="m185.522 243.839c-1.381 0-2.5-1.119-2.5-2.5v-6.532c0-1.381 1.119-2.5 2.5-2.5s2.5 1.119 2.5 2.5v6.532c0 1.381-1.119 2.5-2.5 2.5z"/><path d="m185.522 153.076c-1.381 0-2.5-1.119-2.5-2.5v-5.251c0-1.381 1.119-2.5 2.5-2.5s2.5 1.119 2.5 2.5v5.251c0 1.381-1.119 2.5-2.5 2.5z"/><path d="m151.576 229.777c-.64 0-1.28-.244-1.768-.732-.976-.977-.976-2.56 0-3.535l4.619-4.618c.976-.977 2.559-.977 3.536 0 .976.977.976 2.56 0 3.535l-4.619 4.618c-.488.488-1.128.732-1.768.732z"/><path d="m215.755 165.6c-.64 0-1.279-.244-1.768-.732-.977-.976-.977-2.559 0-3.535l3.713-3.714c.977-.977 2.559-.977 3.536 0 .977.976.977 2.559 0 3.535l-3.713 3.714c-.488.487-1.128.732-1.768.732z"/><path d="m204.506 195.832h-21.596c-1.381 0-2.5-1.119-2.5-2.5s1.119-2.5 2.5-2.5h21.596c1.381 0 2.5 1.119 2.5 2.5s-1.119 2.5-2.5 2.5z"/><path d="m185.665 198.859c-1.381 0-2.5-1.119-2.5-2.5v-33.028c0-1.381 1.119-2.5 2.5-2.5s2.5 1.119 2.5 2.5v33.028c0 1.381-1.119 2.5-2.5 2.5z"/><path d="m108.229 242.991c-2.501 0-5.003-.688-7.188-2.065l-32.702-20.666c-38.875-24.562-61.17-64.293-61.17-109.003v-58.345c0-4.65 3.491-8.478 8.121-8.903 32.798-3.023 63.529-17.693 86.531-41.307 1.698-1.742 3.972-2.702 6.406-2.702 2.433 0 4.708.959 6.405 2.702 23.002 23.613 53.733 38.283 86.532 41.307 4.629.426 8.121 4.253 8.121 8.903v58.345c0 8.14-.755 16.267-2.246 24.155-.134.708-.566 1.324-1.187 1.689-.62.366-1.369.445-2.053.221-5.909-1.95-12.058-2.939-18.276-2.939-32.151 0-58.309 26.157-58.309 58.309 0 11.332 3.267 22.33 9.448 31.805.366.561.491 1.245.349 1.898-.143.654-.542 1.224-1.107 1.581l-20.485 12.944c-2.182 1.381-4.685 2.071-7.19 2.071zm-.002-237.991c-1.072 0-2.075.423-2.823 1.19-23.832 24.466-55.672 39.664-89.655 42.797-2.041.188-3.58 1.875-3.58 3.925v58.345c0 42.959 21.447 81.148 58.841 104.776l32.699 20.664c2.748 1.731 6.296 1.73 9.037-.003l18.385-11.617c-5.841-9.787-8.917-20.93-8.917-32.386 0-34.908 28.4-63.309 63.309-63.309 5.791 0 11.527.79 17.09 2.352 1.11-6.717 1.672-13.592 1.672-20.478v-58.344c0-2.05-1.539-3.737-3.579-3.925-33.984-3.133-65.824-18.331-89.655-42.797-.749-.767-1.752-1.19-2.824-1.19z"/><path d="m108.227 229.769c-.464 0-.928-.129-1.335-.387l-31.67-20.013c-35.061-22.153-55.169-57.914-55.169-98.112v-52.583c0-1.255.931-2.315 2.175-2.479 31.8-4.168 60.945-18.013 84.284-40.037.963-.908 2.469-.908 3.432 0 23.339 22.024 52.484 35.869 84.284 40.037 1.245.163 2.175 1.224 2.175 2.479v52.583c0 7.206-.664 14.416-1.974 21.429-.24 1.28-1.423 2.148-2.72 2.027-2.075-.219-4.156-.33-6.186-.33-32.151 0-58.309 26.157-58.309 58.309 0 7.127 1.284 14.109 3.816 20.753.424 1.112.005 2.368-1 3.004l-20.467 12.934c-.409.257-.873.386-1.336.386zm-83.175-168.916v50.404c0 38.447 19.26 72.668 52.84 93.886l30.334 19.169 17.431-11.016c-2.286-6.632-3.444-13.553-3.444-20.604 0-34.908 28.4-63.309 63.309-63.309 1.444 0 2.911.052 4.383.154.993-6.005 1.496-12.144 1.496-18.28v-50.404c-31.233-4.53-59.898-18.131-83.175-39.462-23.275 21.331-51.941 34.931-83.174 39.462z"/><path d="m100.843 151.25c-2.614 0-5.072-1.018-6.921-2.865l-24.357-24.358c-1.848-1.848-2.866-4.306-2.866-6.921 0-2.613 1.018-5.071 2.866-6.919 1.847-1.846 4.305-2.862 6.921-2.862 2.618 0 5.075 1.016 6.921 2.86l17.436 17.438 38.881-38.883c3.817-3.816 10.027-3.816 13.842-.001 3.816 3.816 3.816 10.026 0 13.842l-45.803 45.802c-1.846 1.848-4.304 2.867-6.92 2.867zm-24.357-38.926c-1.282 0-2.484.497-3.387 1.398-.903.903-1.401 2.104-1.401 3.383s.498 2.481 1.401 3.386l24.357 24.357c.904.903 2.106 1.401 3.386 1.401s2.482-.498 3.385-1.402l45.804-45.802c1.866-1.866 1.866-4.904-.001-6.771-1.866-1.866-4.904-1.865-6.771.001l-40.649 40.65c-.938.938-2.597.938-3.536 0l-19.204-19.205c-.899-.9-2.101-1.396-3.384-1.396z"/></svg>