<svg xmlns="http://www.w3.org/2000/svg" viewBox="0 0 357.2 170.1"><style type="text/css">.st0{fill:#406EB3;}.st1{fill:#632678;}.st2{fill:#982881;}.st3{fill:#BA2F7D;}.st4{fill:#26478D;}.st5{fill:none;}</style><path d="M84 59.5H73.1c-3.3 0-5.9-2.6-5.9-5.9V42.7c0-3.2 2.6-5.9 5.9-5.9H84c3.2 0 5.9 2.6 5.9 5.9v10.9c0 3.3-2.6 5.9-5.9 5.9" class="st0"/><path d="M55.7 84H43.5c-3.7 0-6.6-3-6.6-6.6V65.1c0-3.6 3-6.6 6.6-6.6h12.3c3.7 0 6.6 3 6.6 6.6v12.3c0 3.7-3 6.6-6.7 6.6" class="st1"/><path d="M54.6 109.5h-7.5c-2.2 0-4-1.8-4-4V98c0-2.2 1.8-4 4-4h7.5c2.2 0 4 1.8 4 4v7.5c0 2.2-1.8 4-4 4" class="st2"/><path d="M74.7 133.2h-8.9c-2.6 0-4.8-2.1-4.8-4.8v-8.9c0-2.6 2.1-4.8 4.8-4.8h8.9c2.6 0 4.8 2.1 4.8 4.8v8.9c0 2.7-2.1 4.8-4.8 4.8M107.2 64h-6.1c-1.8 0-3.3-1.5-3.3-3.3v-6.1c0-1.8 1.5-3.3 3.3-3.3h6.1c1.8 0 3.3 1.5 3.3 3.3v6.1c.1 1.8-1.4 3.3-3.3 3.3" class="st3"/><path d="M241.8 68.1c2 0 3.5-1.6 3.5-3.5 0-2-1.6-3.5-3.5-3.5-2 0-3.6 1.6-3.6 3.5s1.6 3.5 3.6 3.5zM112.5 105.9c-.5.8-1.4 1.2-2.4 1.2-.5 0-1.2-.1-1.6-.4-.8-.5-1.3-1.5-1.3-2.5 0-.5.1-1 .4-1.4l8.2-12.9-8.2-12.9c-.3-.4-.4-1-.4-1.4 0-1 .5-2 1.4-2.5.5-.3 1-.4 1.5-.4 1 0 1.9.4 2.5 1.2l6.7 10.6 6.8-10.6c.5-.8 1.5-1.2 2.5-1.2.5 0 1 .1 1.5.4.9.5 1.4 1.5 1.4 2.5 0 .5-.1 1-.4 1.4l-8.2 12.9 8.2 12.9c.3.4.4.9.4 1.4 0 1-.5 2.1-1.3 2.5-.5.3-1.1.4-1.6.4-1 0-1.8-.4-2.4-1.2l-6.8-10.5-6.9 10.5zM141.8 76.6c3.1-2.8 7.3-4.5 11.8-4.5 9.9 0 17.7 7.9 17.7 17.7 0 9.7-7.9 17.6-17.7 17.6-4.5 0-8.7-1.7-11.8-4.5V118c0 1.5-1.4 2.8-2.9 2.8-1.4 0-2.9-1.3-2.9-2.8V75.2c0-1.5 1.4-2.8 2.9-2.8 1.6 0 2.9 1.3 2.9 2.8v1.4zm11.7 1.4c-6.6 0-11.8 5.2-11.8 11.8 0 6.6 5.2 11.8 11.8 11.8 6.6 0 11.8-5.2 11.8-11.8.1-6.6-5.1-11.8-11.8-11.8zM221.4 86.6v17.7c0 1.5-1.4 2.8-2.9 2.8-1.6 0-2.9-1.3-2.9-2.8V75.2c0-1.5 1.4-2.8 2.9-2.8 1.4 0 2.8 1.2 2.9 2.7 2.4-1.8 5.5-2.9 8.8-2.9 1.8 0 3.2 1.4 3.2 2.9 0 1.6-1.4 3-3.2 3-4.5.1-8.8 1.7-8.8 8.5zM241.8 72.4c-1.6 0-2.9 1.3-2.9 2.8v29.2c0 1.5 1.4 2.8 2.9 2.8 1.4 0 2.9-1.3 2.9-2.8V75.2c0-1.5-1.4-2.8-2.9-2.8zM279 75.2c0-1.5 1.4-2.8 2.9-2.8 1.4 0 2.9 1.3 2.9 2.8v29.2c0 1.5-1.4 2.8-2.9 2.8-1.6 0-2.9-1.3-2.9-2.8V103c-3.2 2.8-7.3 4.5-11.8 4.5-9.9 0-17.7-7.9-17.7-17.7 0-9.7 7.9-17.6 17.7-17.6 4.5 0 8.6 1.7 11.8 4.5v-1.5zm-11.8 26.4c6.6 0 11.8-5.2 11.8-11.8 0-6.6-5.2-11.8-11.8-11.8-6.6 0-11.8 5.2-11.8 11.8 0 6.6 5.2 11.8 11.8 11.8zM314.5 87c0-4.9-4.2-9.1-9.1-9.1-4.7 0-9.1 1.9-9.1 8.8v17.7c0 1.5-1.4 2.8-2.9 2.8-1.6 0-2.9-1.3-2.9-2.8V75.2c0-1.5 1.4-2.8 2.9-2.8 1.4 0 2.8 1.2 2.9 2.7 2.5-1.9 5.6-2.9 9-2.9 7.9 0 15 6.2 15 14v18.2c0 1.5-1.4 2.8-2.9 2.8-1.6 0-2.9-1.3-2.9-2.8V87zM105.5 88.8c-.1-9-8.1-16.6-17.6-16.6-9.9 0-17.7 7.9-17.7 17.6 0 9.9 7.9 17.7 17.7 17.7 4.7 0 9.1-1.8 12.3-5 .6-.5 1-1.4 1-2.2 0-1.6-1.4-2.9-2.9-2.9-.9 0-1.7.5-2.3 1.2-2 2.1-4.9 3.1-8 3.1-5.9 0-10.7-4-11.7-9.6h26.4s0 0 .1 0h.1s.1 0 .1 0c.1 0 .2 0 .3-.1 1.2-.5 2.2-1.7 2.2-3.2zM87.9 78c5.3 0 9.7 3.4 11.2 8.2H76.6c1.5-4.8 5.9-8.2 11.3-8.2zM210.7 88.8c-.1-9-8.2-16.6-17.6-16.6-9.9 0-17.7 7.9-17.7 17.6 0 9.9 7.9 17.7 17.7 17.7 4.7 0 9.1-1.8 12.3-5 .6-.5 1-1.4 1-2.2 0-1.6-1.4-2.9-2.9-2.9-.9 0-1.7.5-2.3 1.2-2 2.1-4.9 3.1-8 3.1-5.9 0-10.7-4-11.7-9.6h26.4s0 0 .1 0h.1c.1 0 .2 0 .2 0s.1 0 .1 0c1.2-.5 2.3-1.8 2.3-3.3zM193.1 78c5.3 0 9.7 3.4 11.2 8.2h-22.5c1.5-4.8 5.9-8.2 11.3-8.2zM326.5 107.2c-.3 0-.5-.2-.5-.5v-4.9h-1.1c-.3 0-.5-.2-.5-.5s.2-.5.5-.5h3.2c.3 0 .5.2.5.5s-.2.5-.5.5H327v4.9c0 .3-.2.5-.5.5zM332.2 107.2c-.3 0-.4-.2-.5-.4l-1.4-4v3.9c0 .3-.2.5-.5.5s-.5-.2-.5-.5v-5.2c0-.4.3-.7.7-.7.3 0 .6.2.7.5l1.4 4.1 1.4-4.1c.1-.3.4-.5.7-.5.4 0 .7.3.7.7v5.2c0 .3-.2.5-.5.5s-.5-.2-.5-.5v-3.9c-.2.6-.5 1.6-.8 2.4-.5 1.6-.6 1.6-.6 1.6.1.3-.1.4-.3.4z" class="st4"/><path d="M32.1 81.3h-8.9c-2.6 0-4.8-2.1-4.8-4.8v-8.9c0-2.6 2.1-4.8 4.8-4.8h8.9c2.6 0 4.8 2.1 4.8 4.8v8.9c0 2.7-2.2 4.8-4.8 4.8M13.6 81.3H4.8c-2.6 0-4.8-2.1-4.8-4.8v-8.9c0-2.6 2.1-4.8 4.8-4.8h8.9c2.6 0 4.8 2.1 4.8 4.8v8.9c-.1 2.7-2.2 4.8-4.9 4.8M79.5 138v8.9c0 2.6-2.1 4.8-4.8 4.8h-8.9c-2.6 0-4.8-2.1-4.8-4.8V138c0-2.6 2.1-4.8 4.8-4.8h8.9c2.7 0 4.8 2.2 4.8 4.8M79.5 156.4v8.9c0 2.6-2.1 4.8-4.8 4.8h-8.9c-2.6 0-4.8-2.1-4.8-4.8v-8.9c0-2.6 2.1-4.8 4.8-4.8h8.9c2.7.1 4.8 2.2 4.8 4.8M70.4 32.1v-8.9c0-2.6 2.1-4.8 4.8-4.8H84c2.6 0 4.8 2.1 4.8 4.8v8.9c0 2.6-2.1 4.8-4.8 4.8h-8.9c-2.6 0-4.7-2.2-4.7-4.8M70.4 13.6V4.8c0-2.6 2.1-4.8 4.8-4.8H84c2.6 0 4.8 2.1 4.8 4.8v8.9c0 2.6-2.1 4.8-4.8 4.8h-8.9c-2.6-.1-4.7-2.2-4.7-4.9M352.4 105.7h-8.9c-2.6 0-4.8-2.1-4.8-4.8V92c0-2.6 2.1-4.8 4.8-4.8h8.9c2.6 0 4.8 2.1 4.8 4.8v8.9c0 2.7-2.2 4.8-4.8 4.8M334 105.7h-8.9c-2.6 0-4.8-2.1-4.8-4.8V92c0-2.6 2.1-4.8 4.8-4.8h8.9c2.6 0 4.8 2.1 4.8 4.8v8.9c-.1 2.7-2.2 4.8-4.8 4.8" class="st5"/></svg>